<svg width="571" height="144" viewBox="0 0 571 144" fill="none" xmlns="http://www.w3.org/2000/svg">
<path d="M69.2351 143.932C40.4221 143.97 16.6611 121.096 15.2271 91.953V91.848C9.96808 91.176 5.65108 87.31 4.35008 82.105C2.84008 76.117 0.796084 67.171 0.553084 58.574C0.396084 53.6 3.22808 49.026 7.71708 47.003C12.1241 45 18.4101 43.361 26.3341 42.12C30.7671 31.743 35.9981 22.723 41.5311 15.925C50.1491 5.357 59.4711 0 69.2351 0C78.9991 0 88.3131 5.357 96.9191 15.929C102.426 22.727 107.679 31.736 112.103 42.09C119.973 43.293 126.25 44.941 130.779 46.983C135.265 48.998 138.099 53.564 137.947 58.533C137.704 67.177 135.663 76.126 134.154 82.102C132.855 87.316 128.53 91.19 123.26 91.856V91.953C121.786 121.092 98.0191 143.947 69.2101 143.929L69.2351 143.932Z" fill="white"/>
<path d="M69.1997 9.10742C94.2197 9.10742 114.505 63.5734 114.505 88.9174C114.505 114.261 94.2237 134.807 69.1947 134.807C44.1747 134.807 23.8887 114.266 23.8887 88.9174C23.8937 63.5734 44.1797 9.10742 69.1997 9.10742Z" fill="#FCFBFA"/>
<path d="M126.653 53.0645L108.17 59.6675C108.17 59.6675 111.03 68.4775 111.055 68.5405C111.084 68.6085 129.472 66.1395 129.472 66.1395L126.653 53.0645ZM11.7534 53.0645L30.2374 59.6675C30.2374 59.6675 27.3814 68.4775 27.3514 68.5405C27.3264 68.6085 8.94336 66.1395 8.94336 66.1395L11.7574 53.0655L11.7534 53.0645Z" fill="#252526"/>
<path d="M50.183 51.5036C53.065 51.4356 55.553 53.5336 56.008 56.4156C56.593 59.6016 56.983 62.8236 57.167 66.0636C57.185 66.9706 57.103 67.8766 56.924 68.7656C56.71 66.5906 56.406 64.4256 56.012 62.2776C55.557 59.3946 53.069 57.2966 50.187 57.3646C43.245 57.4366 36.303 57.9696 29.428 58.9656C30.08 56.9156 30.779 54.8576 31.528 52.8246C37.715 52.0086 43.944 51.5666 50.183 51.5036ZM114.424 86.8806C98.107 86.0286 84.169 80.7396 81.024 78.8506C78.569 77.6646 75.441 75.1446 74.543 68.8466C73.94 75.7846 75.233 82.1036 81.665 85.2246C82.138 85.5126 94.449 91.6836 114.317 92.7426C114.476 90.7926 114.512 88.8346 114.424 86.8806ZM24.03 86.8806C40.347 86.0286 54.285 80.7396 57.43 78.8506C59.885 77.6646 63.013 75.1446 63.912 68.8466C64.514 75.7846 63.222 82.1036 56.79 85.2246C56.317 85.5126 44.006 91.6836 24.138 92.7426C23.979 90.7926 23.942 88.8346 24.03 86.8806ZM88.175 51.5036C85.294 51.4356 82.805 53.5336 82.35 56.4156C81.765 59.6016 81.38 62.8236 81.196 66.0636C81.176 66.9706 81.258 67.8766 81.438 68.7656C81.668 66.4316 81.986 64.2086 82.346 62.2776C82.804 59.3966 85.291 57.2996 88.171 57.3646C95.117 57.4366 102.054 57.9696 108.929 58.9656C108.276 56.9026 107.576 54.8556 106.83 52.8246C100.645 52.0096 94.416 51.5676 88.179 51.5036H88.175Z" fill="#E0E0E0"/>
<path d="M29.5711 46.5409C34.0211 35.6129 39.3571 26.1559 45.0021 19.1929C52.6921 9.74889 60.8301 4.96289 69.1901 4.96289C77.5541 4.96289 85.6911 9.74889 93.3781 19.1849C99.0451 26.1399 104.401 35.5969 108.809 46.5369L109.026 47.0969L108.474 47.0159C106.902 46.8049 105.627 46.6529 104.067 46.4569H103.87L103.795 46.2789C98.7881 34.4439 90.2451 18.9899 79.2091 12.5349C76.1861 10.6719 72.7281 9.65389 69.1891 9.58789C65.6511 9.65489 62.1951 10.6719 59.1731 12.5349C48.1621 18.9809 39.6441 34.3639 34.5961 46.2609L34.5211 46.4399H34.3301C32.7581 46.6089 31.4781 46.7659 29.9181 46.9989L29.3701 47.0799L29.5711 46.5409ZM114.943 81.1689C113.713 81.1349 112.475 81.0839 111.254 81.0119H110.878L110.828 80.6259C109.724 71.9269 107.256 61.7369 103.827 51.9489L103.606 51.2169L104.35 51.3189C105.751 51.5089 107.106 51.7209 108.427 51.9459L108.699 51.9879L108.787 52.2509C112.091 62.0259 114.432 72.1099 115.436 80.6479L115.499 81.2079L114.943 81.1689Z" fill="#56555C"/>
<path d="M110.903 59.1239C110.237 56.8189 109.522 54.5279 108.757 52.2549L108.674 51.9919L108.402 51.9449C107.101 51.7199 105.726 51.5089 104.325 51.3179L103.605 51.2129L103.856 51.9329C104.613 54.1019 105.324 56.2869 105.989 58.4809C108.339 58.7559 109.669 58.9459 110.903 59.1239Z" fill="#252526"/>
<path d="M23.3027 80.4497C24.3067 71.9107 26.6697 61.8267 29.9517 52.0527L30.0397 51.7897L30.3107 51.7387C31.6117 51.5177 32.9867 51.3017 34.3877 51.1157L35.1327 51.0137L34.8817 51.7297C31.4607 61.5177 28.9767 71.6997 27.8857 80.4027L27.8357 80.7927H27.4597C26.2347 80.8647 24.9927 80.9157 23.7717 80.9447H23.2197L23.3027 80.4497Z" fill="#56555C"/>
<path d="M30.3125 51.7377L30.0405 51.7797L29.9565 52.0467C29.1925 54.3247 28.4775 56.6197 27.8115 58.9297C30.1115 58.6327 30.7765 58.6667 32.7005 58.4587C33.3775 56.2277 34.1055 53.9527 34.9045 51.7257L35.1555 51.0137L34.4065 51.1157C33.0385 51.3037 31.6735 51.5107 30.3125 51.7377Z" fill="#252526"/>
<path d="M69.1996 138.927C48.9056 138.929 30.6746 126.362 23.2326 107.239C20.7326 100.759 19.5766 93.827 19.8366 86.875V86.562H20.1466C21.7566 86.52 22.8556 86.478 24.0016 86.418H24.3616V86.778C23.4746 105.693 34.2646 123.181 51.4406 130.667C68.6156 138.151 88.5736 134.061 101.524 120.402C105.628 116.09 108.841 110.994 110.975 105.409C113.25 99.479 114.266 93.135 113.97 86.786V86.422H114.329C115.931 86.507 117.035 86.541 118.185 86.567H118.494V86.88C118.778 93.821 117.65 100.749 115.178 107.231C107.753 126.369 89.5136 138.95 69.2106 138.936H69.1996V138.927Z" fill="#56555C"/>
<path d="M24.5204 92.7418C24.3614 90.7508 24.3194 88.7478 24.3984 86.7488V86.3848H24.0394C22.8854 86.4478 21.7814 86.4898 20.1844 86.5328H19.8744V86.8418C19.8074 88.8498 19.8494 90.8578 20.0084 92.8568H20.1544C21.6424 92.8568 23.0984 92.7888 24.4824 92.7208L24.5204 92.7418ZM118.535 86.5548H118.226C117.059 86.5548 115.955 86.4908 114.37 86.4098H114.01V86.7698C114.094 88.7508 114.052 90.7338 113.897 92.7078L118.414 92.9068C118.573 90.9028 118.614 88.8998 118.548 86.8918L118.535 86.5548Z" fill="#252526"/>
<path d="M121.083 87.5744C111.638 87.6094 102.229 86.3854 93.0989 83.9314C89.1679 82.8854 85.3419 81.4754 81.6659 79.7344L81.5779 79.6674C73.8629 75.9324 73.5779 68.4434 74.2979 61.6164C74.4779 59.8924 73.8549 57.6094 72.0609 56.3984C70.3489 55.2414 68.1189 55.2414 66.4069 56.3984C64.6089 57.6004 63.9859 59.8794 64.1649 61.5984C64.8839 68.4304 64.5829 75.9184 56.8889 79.6544L56.7999 79.6964C53.1219 81.4594 49.2939 82.8814 45.3629 83.9444C36.2329 86.3974 26.8239 87.6224 17.3779 87.5874H17.3359C13.4169 87.5394 10.0209 84.8224 9.06794 80.9724C7.60394 75.2424 5.65094 66.6574 5.42494 58.6014C5.32294 55.3764 7.15794 52.4114 10.0669 51.0964C20.6889 46.3234 42.1919 44.5274 51.3619 44.6504C54.5609 44.6254 57.6339 45.9124 59.8839 48.2164C62.8179 46.8224 66.0109 46.0764 69.2509 46.0274C72.4909 46.0744 75.6839 46.8174 78.6179 48.2084C80.8499 45.9194 83.8979 44.6374 87.0739 44.6504C92.5859 44.5654 116.281 45.6034 128.403 51.0674C131.308 52.3704 133.143 55.3264 133.045 58.5424C132.819 66.6104 130.841 75.2424 129.423 80.9604C128.47 84.8114 125.075 87.5274 121.156 87.5754L121.083 87.5744ZM88.2309 51.8534C85.5099 51.7924 83.1609 53.7704 82.7239 56.4914C82.1389 59.6684 81.7539 62.8744 81.5659 66.0964C81.5239 69.7814 82.8289 72.3014 85.4209 73.5934C95.1389 77.9814 106.43 80.1494 119.942 80.2174C120.978 80.2114 121.881 79.5034 122.146 78.4884C123.429 73.4064 125.161 65.8454 125.361 58.8954C125.383 58.2304 125.002 57.6184 124.4 57.3494C115.183 53.1534 95.4319 51.7164 88.2309 51.8314V51.8534ZM14.0039 57.3384C13.4029 57.6084 13.0239 58.2204 13.0459 58.8844C13.2469 65.8184 14.9779 73.3994 16.2619 78.4774C16.5209 79.4944 17.4289 80.2064 18.4659 80.2094C31.9899 80.1424 43.2639 77.9734 53.0119 73.5764C55.6129 72.2934 56.9139 69.7644 56.8719 66.0674C56.6839 62.8474 56.2959 59.6434 55.7089 56.4744C55.2709 53.7514 52.9199 51.7734 50.1969 51.8364C46.0029 51.7684 24.4459 52.6284 14.0079 57.3424L14.0039 57.3384Z" fill="#252526"/>
<path d="M335.069 59.7565C332.871 58.5195 330.296 57.9005 327.341 57.9005C324.091 57.9005 321.412 58.6025 319.308 60.0055C317.221 61.3905 315.679 63.2825 314.682 65.6835H314.184V44.2715H304.378V100.999H314.404V76.0705C314.404 74.0205 314.793 72.2755 315.568 70.8355C316.362 69.3955 317.451 68.2965 318.837 67.5395C320.24 66.7645 321.828 66.3755 323.601 66.3755C326.242 66.3755 328.292 67.1795 329.749 68.7855C331.228 70.3735 331.966 72.5985 331.966 75.4615V100.999H341.992V73.9095C341.992 70.4745 341.384 67.5665 340.164 65.1845C338.965 62.8035 337.266 60.9925 335.069 59.7565Z" fill="black"/>
<path d="M285.384 65.4884H284.83C284.331 64.4544 283.602 63.3554 282.641 62.1924C281.681 61.0094 280.389 60.0044 278.764 59.1724C277.157 58.3224 275.107 57.8984 272.614 57.8984C269.346 57.8984 266.382 58.7394 263.723 60.4194C261.064 62.0814 258.95 64.5284 257.38 67.7604C255.829 70.9734 255.053 74.9154 255.053 79.5874C255.053 84.2224 255.829 88.0814 257.38 91.1654C258.95 94.2304 261.055 96.5384 263.695 98.0904C266.354 99.6224 269.318 100.389 272.587 100.389C275.024 100.389 277.046 100.02 278.653 99.2814C280.278 98.5434 281.58 97.6294 282.558 96.5394C283.555 95.4504 284.313 94.3894 284.83 93.3544H285.328V101.414C285.328 104.554 284.396 106.807 282.531 108.173C280.666 109.558 278.311 110.25 275.467 110.25C273.455 110.25 271.783 109.973 270.454 109.419C269.143 108.884 268.099 108.201 267.324 107.37C266.548 106.557 265.957 105.736 265.551 104.905L256.521 107.093C257.131 109.07 258.22 110.869 259.79 112.494C261.359 114.119 263.437 115.412 266.022 116.372C268.607 117.351 271.7 117.84 275.301 117.84C279.124 117.84 282.54 117.249 285.55 116.068C288.56 114.885 290.933 113.103 292.668 110.721C294.404 108.339 295.272 105.329 295.272 101.692V58.4524H285.384V65.4884ZM284.22 86.5124C283.445 88.4504 282.309 89.9374 280.813 90.9714C279.317 92.0054 277.508 92.5234 275.384 92.5234C273.187 92.5234 271.331 91.9874 269.817 90.9174C268.321 89.8274 267.185 88.3134 266.41 86.3744C265.653 84.4174 265.274 82.1364 265.274 79.5324C265.274 76.9664 265.653 74.6764 266.41 72.6634C267.167 70.6324 268.293 69.0344 269.789 67.8714C271.285 66.7084 273.15 66.1264 275.384 66.1264C277.545 66.1264 279.364 66.6894 280.841 67.8154C282.337 68.9234 283.463 70.4844 284.22 72.4974C284.996 74.5104 285.384 76.8544 285.384 79.5324C285.384 82.2464 284.996 84.5724 284.22 86.5124Z" fill="black"/>
<path d="M196.089 63.0524C194.298 61.2974 192.229 60.0054 189.884 59.1744C187.558 58.3244 185.083 57.9004 182.461 57.9004C178.398 57.9004 174.862 58.8334 171.852 60.6984C168.842 62.5454 166.497 65.1304 164.817 68.4544C163.155 71.7594 162.324 75.6004 162.324 79.9764C162.324 84.4264 163.155 88.2954 164.817 91.5814C166.479 94.8504 168.852 97.3804 171.935 99.1714C175.038 100.944 178.722 101.83 182.987 101.83C186.293 101.83 189.229 101.331 191.795 100.334C194.362 99.3184 196.467 97.8964 198.111 96.0684C199.773 94.2214 200.899 92.0614 201.49 89.5874L192.128 88.5344C191.685 89.7344 191.029 90.7414 190.161 91.5544C189.293 92.3674 188.268 92.9854 187.087 93.4094C185.905 93.8154 184.585 94.0184 183.126 94.0184C180.947 94.0184 179.045 93.5574 177.42 92.6334C175.795 91.6924 174.53 90.3434 173.625 88.5894C172.752 86.8794 172.311 84.8324 172.28 82.4684H201.906V79.3934C201.906 75.6644 201.388 72.4514 200.354 69.7544C199.32 67.0404 197.898 64.8064 196.089 63.0524ZM172.308 75.7104C172.405 74.0464 172.813 72.4994 173.57 71.0844C174.438 69.4784 175.647 68.1864 177.198 67.2064C178.749 66.2094 180.55 65.7114 182.599 65.7114C184.52 65.7114 186.2 66.1454 187.641 67.0134C189.099 67.8814 190.235 69.0724 191.048 70.5864C191.86 72.0814 192.276 73.7894 192.294 75.7104H172.308Z" fill="black"/>
<path d="M237.805 65.4884H237.251C236.752 64.4544 236.023 63.3554 235.062 62.1924C234.102 61.0094 232.81 60.0044 231.185 59.1724C229.578 58.3224 227.528 57.8984 225.035 57.8984C221.767 57.8984 218.803 58.7394 216.144 60.4194C213.485 62.0814 211.371 64.5284 209.801 67.7604C208.25 70.9734 207.474 74.9154 207.474 79.5874C207.474 84.2224 208.25 88.0814 209.801 91.1654C211.371 94.2304 213.476 96.5384 216.116 98.0904C218.775 99.6224 221.739 100.389 225.008 100.389C227.445 100.389 229.467 100.02 231.074 99.2814C232.699 98.5434 234.001 97.6294 234.979 96.5394C235.976 95.4504 236.734 94.3894 237.251 93.3544H237.749V101.414C237.749 104.554 236.817 106.807 234.952 108.173C233.087 109.558 230.732 110.25 227.888 110.25C225.876 110.25 224.204 109.973 222.875 109.419C221.564 108.884 220.52 108.201 219.745 107.37C218.969 106.557 218.378 105.736 217.972 104.905L208.942 107.093C209.552 109.07 210.641 110.869 212.211 112.494C213.78 114.119 215.858 115.412 218.443 116.372C221.028 117.351 224.121 117.84 227.722 117.84C231.545 117.84 234.961 117.249 237.971 116.068C240.981 114.885 243.354 113.103 245.089 110.721C246.825 108.339 247.693 105.329 247.693 101.692V58.4524H237.805V65.4884ZM236.641 86.5124C235.866 88.4504 234.73 89.9374 233.234 90.9714C231.738 92.0054 229.929 92.5234 227.805 92.5234C225.608 92.5234 223.752 91.9874 222.238 90.9174C220.742 89.8274 219.606 88.3134 218.831 86.3744C218.074 84.4174 217.695 82.1364 217.695 79.5324C217.695 76.9664 218.074 74.6764 218.831 72.6634C219.588 70.6324 220.714 69.0344 222.21 67.8714C223.706 66.7084 225.571 66.1264 227.805 66.1264C229.966 66.1264 231.785 66.6894 233.262 67.8154C234.758 68.9234 235.884 70.4844 236.641 72.4974C237.417 74.5104 237.805 76.8544 237.805 79.5324C237.805 82.2464 237.417 84.5724 236.641 86.5124Z" fill="black"/>
<path d="M519.172 58.4531H509.145V100.999H519.172V58.4531Z" fill="black"/>
<path d="M514.185 41.5293C512.597 41.5293 511.23 42.0653 510.085 43.1353C508.939 44.1883 508.367 45.4713 508.367 46.9863C508.367 48.4823 508.939 49.7653 510.085 50.8363C511.23 51.8893 512.597 52.4153 514.185 52.4153C515.79 52.4153 517.158 51.8893 518.284 50.8363C519.43 49.7663 520.003 48.4823 520.003 46.9863C520.003 45.4713 519.43 44.1883 518.284 43.1353C517.158 42.0653 515.791 41.5293 514.185 41.5293Z" fill="black"/>
<path d="M382.981 63.0524C381.19 61.2974 379.122 60.0054 376.777 59.1744C374.45 58.3244 371.975 57.9004 369.353 57.9004C365.29 57.9004 361.754 58.8334 358.745 60.6984C355.735 62.5454 353.39 65.1304 351.71 68.4544C350.048 71.7594 349.217 75.6004 349.217 79.9764C349.217 84.4264 350.048 88.2954 351.71 91.5814C353.371 94.8504 355.744 97.3804 358.828 99.1714C361.931 100.944 365.614 101.83 369.88 101.83C373.186 101.83 376.121 101.331 378.689 100.334C381.255 99.3184 383.361 97.8964 385.004 96.0684C386.665 94.2214 387.791 92.0614 388.383 89.5874L379.021 88.5344C378.578 89.7344 377.922 90.7414 377.054 91.5544C376.187 92.3674 375.161 92.9854 373.98 93.4094C372.798 93.8154 371.478 94.0184 370.019 94.0184C367.84 94.0184 365.938 93.5574 364.313 92.6334C362.688 91.6924 361.423 90.3434 360.518 88.5894C359.644 86.8794 359.203 84.8324 359.172 82.4684H388.799V79.3934C388.799 75.6644 388.281 72.4514 387.247 69.7544C386.213 67.0404 384.791 64.8064 382.981 63.0524ZM359.2 75.7104C359.298 74.0464 359.705 72.4994 360.463 71.0844C361.33 69.4784 362.539 68.1864 364.091 67.2064C365.643 66.2094 367.443 65.7114 369.492 65.7114C371.412 65.7114 373.094 66.1454 374.533 67.0134C375.992 67.8814 377.128 69.0724 377.94 70.5864C378.753 72.0814 379.169 73.7894 379.186 75.7104H359.2Z" fill="black"/>
<path d="M564.735 68.3424C563.074 65.0364 560.719 62.4704 557.672 60.6424C554.624 58.8144 551.025 57.9004 546.869 57.9004C542.715 57.9004 539.113 58.8144 536.066 60.6424C533.019 62.4704 530.656 65.0374 528.975 68.3424C527.313 71.6484 526.482 75.4984 526.482 79.8934C526.482 84.2884 527.313 88.1284 528.975 91.4154C530.656 94.7024 533.019 97.2604 536.066 99.0884C539.113 100.916 542.714 101.83 546.869 101.83C551.024 101.83 554.624 100.916 557.672 99.0884C560.719 97.2604 563.073 94.7024 564.735 91.4154C566.416 88.1284 567.256 84.2874 567.256 79.8934C567.256 75.4994 566.416 71.6474 564.735 68.3424ZM555.955 86.9004C555.217 89.0054 554.091 90.6854 552.576 91.9414C551.061 93.1784 549.179 93.7964 546.926 93.7964C544.617 93.7964 542.697 93.1784 541.164 91.9414C539.65 90.6854 538.515 89.0054 537.758 86.9004C537.019 84.7954 536.65 82.4504 536.65 79.8654C536.65 77.2614 537.019 74.9064 537.758 72.8024C538.515 70.6784 539.651 68.9894 541.164 67.7334C542.696 66.4774 544.617 65.8494 546.926 65.8494C549.179 65.8494 551.062 66.4774 552.576 67.7334C554.09 68.9894 555.217 70.6784 555.955 72.8024C556.713 74.9064 557.092 77.2614 557.092 79.8654C557.091 82.4504 556.712 84.7954 555.955 86.9004Z" fill="black"/>
<path d="M425.222 61.0014C423.542 59.8934 421.686 59.0994 419.655 58.6194C417.623 58.1394 415.584 57.8984 413.533 57.8984C410.56 57.8984 407.846 58.3414 405.39 59.2284C402.934 60.0954 400.856 61.4074 399.157 63.1614C397.46 64.8974 396.24 67.0574 395.502 69.6424L404.863 70.9724C405.362 69.5134 406.322 68.2484 407.744 67.1774C409.184 66.1064 411.134 65.5714 413.59 65.5714C415.915 65.5714 417.697 66.1434 418.935 67.2884C420.173 68.4344 420.79 70.0494 420.79 72.1364V72.3024C420.79 73.2634 420.431 73.9734 419.711 74.4354C419.009 74.8784 417.883 75.2114 416.331 75.4324C414.78 75.6354 412.759 75.8674 410.266 76.1244C408.198 76.3464 406.194 76.7064 404.255 77.2054C402.335 77.6844 400.608 78.3954 399.074 79.3384C397.543 80.2794 396.332 81.5354 395.446 83.1054C394.559 84.6744 394.116 86.6604 394.116 89.0604C394.116 91.8484 394.735 94.1944 395.972 96.0964C397.228 97.9974 398.927 99.4384 401.069 100.416C403.229 101.377 405.657 101.857 408.353 101.857C410.569 101.857 412.499 101.551 414.143 100.943C415.804 100.315 417.18 99.4934 418.27 98.4774C419.378 97.4434 420.236 96.3354 420.846 95.1534H421.178V100.998H430.817V72.5234C430.817 69.6984 430.3 67.3434 429.266 65.4604C428.25 63.5774 426.902 62.0914 425.222 61.0014ZM420.818 85.7364C420.818 87.3054 420.412 88.7554 419.599 90.0854C418.805 91.4144 417.67 92.4854 416.192 93.2984C414.715 94.0924 412.97 94.4894 410.957 94.4894C408.871 94.4894 407.153 94.0174 405.806 93.0764C404.457 92.1354 403.784 90.7404 403.784 88.8934C403.784 87.6004 404.126 86.5484 404.809 85.7364C405.492 84.9054 406.425 84.2584 407.607 83.7974C408.788 83.3364 410.128 83.0034 411.623 82.8004C412.288 82.7084 413.073 82.5974 413.977 82.4684C414.882 82.3384 415.796 82.1914 416.72 82.0254C417.643 81.8594 418.474 81.6654 419.212 81.4434C419.97 81.2214 420.505 80.9824 420.818 80.7234V85.7364Z" fill="black"/>
<path d="M468.121 65.4895H467.706C467.188 64.4555 466.46 63.3565 465.518 62.1935C464.577 61.0105 463.302 60.0055 461.696 59.1735C460.09 58.3235 458.04 57.8995 455.548 57.8995C452.278 57.8995 449.315 58.7405 446.655 60.4205C443.996 62.0825 441.883 64.5475 440.312 67.8165C438.761 71.0665 437.986 75.0555 437.986 79.7825C437.986 84.4545 438.753 88.4255 440.285 91.6935C441.817 94.9615 443.904 97.4545 446.546 99.1725C449.186 100.889 452.178 101.748 455.52 101.748C457.958 101.748 459.98 101.342 461.586 100.529C463.192 99.7165 464.484 98.7385 465.464 97.5925C466.443 96.4295 467.19 95.3305 467.707 94.2965H468.316V100.999H478.177V44.2715H468.121V65.4895ZM467.152 86.9565C466.377 89.0245 465.24 90.6405 463.745 91.8035C462.249 92.9495 460.439 93.5215 458.316 93.5215C456.118 93.5215 454.262 92.9305 452.748 91.7495C451.253 90.5485 450.117 88.9145 449.342 86.8465C448.585 84.7595 448.206 82.3875 448.206 79.7285C448.206 77.0875 448.585 74.7425 449.342 72.6925C450.099 70.6425 451.226 69.0365 452.721 67.8735C454.217 66.7105 456.081 66.1285 458.317 66.1285C460.477 66.1285 462.296 66.6915 463.773 67.8175C465.269 68.9445 466.395 70.5235 467.153 72.5545C467.928 74.5855 468.316 76.9765 468.316 79.7285C468.315 82.4785 467.927 84.8885 467.152 86.9565Z" fill="black"/>
<path d="M493.867 89.4766C492.187 89.4766 490.747 90.0676 489.547 91.2486C488.347 92.4296 487.756 93.8526 487.775 95.5146C487.756 97.2136 488.347 98.6546 489.547 99.8356C490.747 101.017 492.188 101.608 493.867 101.608C494.957 101.608 495.954 101.34 496.859 100.804C497.782 100.25 498.521 99.5116 499.075 98.5876C499.647 97.6646 499.943 96.6396 499.962 95.5136C499.943 93.8516 499.324 92.4296 498.106 91.2476C496.905 90.0666 495.492 89.4766 493.867 89.4766Z" fill="black"/>
</svg>
