<svg width="328" height="49" viewBox="0 0 328 49" fill="none" xmlns="http://www.w3.org/2000/svg">
<path d="M66 10.7594C66 14.1344 63.264 16.8704 59.889 16.8704H35.444C32.069 16.8704 29.333 14.1344 29.333 10.7594C29.333 7.38444 32.069 4.64844 35.444 4.64844H59.888C63.264 4.64744 66 7.38444 66 10.7594ZM45.833 36.4254H21.389C18.014 36.4254 15.278 39.1614 15.278 42.5364C15.278 45.9114 18.014 48.6474 21.389 48.6474H45.833C49.208 48.6474 51.944 45.9114 51.944 42.5364C51.944 39.1614 49.208 36.4254 45.833 36.4254ZM45.833 20.5364H36.055C32.68 20.5364 29.944 23.2724 29.944 26.6474C29.944 30.0224 32.68 32.7584 36.055 32.7584H45.833C49.208 32.7584 51.944 30.0224 51.944 26.6474C51.944 23.2724 49.208 20.5364 45.833 20.5364ZM6.111 36.4254C2.736 36.4254 0 39.1614 0 42.5364C0 45.9114 2.736 48.6474 6.111 48.6474C9.486 48.6474 12.222 45.9114 12.222 42.5364C12.222 39.1614 9.486 36.4254 6.111 36.4254Z" fill="black"/>
<path d="M110.833 30.3218L103.499 27.5566C100.991 26.8069 99.7368 25.6923 99.7368 24.2147C99.7368 23.3355 100.183 22.5754 101.076 21.9325C101.99 21.2679 103.244 20.9351 104.839 20.9351C106.603 20.9351 107.921 21.2348 108.792 21.8351C109.664 22.4355 110.153 23.2494 110.259 24.278H117.338C117.274 21.5997 116.158 19.3923 113.99 17.6566C111.843 15.9001 108.792 15.0209 104.839 15.0209C100.864 15.0209 97.6858 15.8348 95.3046 17.4637C92.945 19.0709 91.7653 21.1923 91.7653 23.828C91.7653 25.8199 92.4133 27.5348 93.7103 28.9699C95.0064 30.4059 96.867 31.5631 99.2904 32.4413L106.05 34.8842C107.432 35.3134 108.431 35.7842 109.048 36.2985C109.685 36.791 110.004 37.4774 110.004 38.3566C110.004 39.042 109.771 39.6631 109.303 40.2208C108.835 40.7777 108.176 41.2173 107.326 41.5387C106.497 41.8611 105.54 42.0218 104.456 42.0218C102.479 42.0218 100.917 41.6682 99.7687 40.9611C98.6208 40.2539 98.0149 39.1289 97.9512 37.5861H91C91.0206 39.7727 91.6058 41.6465 92.7537 43.2111C93.9016 44.7539 95.5381 45.9432 97.6642 46.778C99.8118 47.592 102.373 47.9994 105.349 47.9994C107.921 47.9994 110.185 47.539 112.14 46.6173C114.096 45.6955 115.616 44.5072 116.7 43.0504C117.806 41.5718 118.358 40.0072 118.358 38.3575C118.358 36.3855 117.699 34.7566 116.381 33.4718C115.064 32.1861 113.214 31.1367 110.833 30.3218ZM134.163 22.8647C135.225 22.1793 136.363 21.8361 137.575 21.8361C139.041 21.8361 140.231 22.287 141.146 23.1861C142.081 24.0861 142.719 25.2215 143.059 26.5932L150.648 26.4004C150.477 25.0296 150.084 23.6682 149.468 22.3182C148.851 20.9682 148.001 19.7468 146.917 18.6539C145.833 17.5393 144.514 16.662 142.963 16.0182C141.433 15.3546 139.658 15.0218 137.638 15.0218C135.044 15.0218 132.632 15.6543 130.4 16.9182C128.189 18.1831 126.393 20.0474 125.011 22.5111C123.651 24.9539 122.971 27.9432 122.971 31.4789C122.971 34.8218 123.651 37.7364 125.011 40.2218C126.393 42.6855 128.189 44.6036 130.4 45.9754C132.632 47.3254 135.044 48.0004 137.638 48.0004C140.444 48.0004 142.814 47.4653 144.749 46.3942C146.683 45.3013 148.15 43.8445 149.149 42.0227C150.148 40.201 150.648 38.1864 150.648 35.9789H143.059C143.059 37.5435 142.623 38.7962 141.752 39.7406C140.879 40.6623 139.488 41.1227 137.575 41.1227C136.278 41.1227 135.098 40.7692 134.035 40.062C132.972 39.3331 132.122 38.262 131.484 36.8477C130.867 35.4117 130.56 33.6231 130.56 31.4799C130.56 29.2299 130.889 27.3977 131.548 25.9835C132.228 24.5682 133.099 23.5293 134.163 22.8647ZM175.348 15.3432C173.458 15.3432 171.735 15.9965 170.183 17.3039C168.904 18.3788 167.844 19.9472 166.995 21.994V15.7932H159.47V47.1004H166.995V33.4075C166.995 31.114 167.272 29.1855 167.824 27.6218C168.398 26.0581 169.238 24.8793 170.343 24.0861C171.469 23.2721 172.863 22.8647 174.521 22.8647C175.03 22.8647 175.604 22.9081 176.243 22.9942C176.881 23.0793 177.475 23.1861 178.028 23.3156L178.155 15.7289C177.709 15.6004 177.252 15.5039 176.785 15.4397C176.338 15.3754 175.859 15.3432 175.348 15.3432ZM189.506 2.21875C188.039 2.21875 186.89 2.62621 186.061 3.44018C185.255 4.23241 184.85 5.30446 184.85 6.65352C184.85 8.04701 185.255 9.13986 186.061 9.93304C186.89 10.7035 188.038 11.0902 189.506 11.0902C190.951 11.0902 192.089 10.7045 192.917 9.93304C193.746 9.14081 194.16 8.04701 194.16 6.65446C194.16 5.30446 193.747 4.23241 192.917 3.44112C192.089 2.62621 190.951 2.21875 189.506 2.21875ZM185.742 47.0994H193.268V15.7923H185.742V47.0994ZM248.701 16.7575C247.001 15.6004 244.885 15.0218 242.355 15.0218C240.528 15.0218 238.858 15.3546 237.349 16.0182C235.841 16.662 234.521 17.6906 233.395 19.1049C232.792 19.8631 232.27 20.7678 231.812 21.7935C231.785 21.7245 231.765 21.6489 231.737 21.5799C230.886 19.501 229.6 17.8939 227.878 16.7575C226.178 15.6004 224.052 15.0218 221.502 15.0218C219.332 15.0218 217.41 15.5474 215.73 16.5968C214.051 17.6254 212.701 19.1786 211.681 21.2575L210.852 15.9218H204.283V47.1004H211.808V33.1504C211.808 30.6442 212.137 28.5549 212.796 26.8825C213.455 25.1903 214.358 23.9254 215.507 23.0897C216.677 22.2539 218.016 21.8361 219.525 21.8361C221.309 21.8361 222.755 22.4251 223.861 23.6039C224.967 24.7828 225.519 26.5289 225.519 28.8432V47.1013H233.044V32.9585C233.044 29.2299 233.691 26.4429 234.989 24.6004C236.286 22.7578 238.06 21.8361 240.314 21.8361C242.099 21.8361 243.544 22.4251 244.651 23.6039C245.757 24.7828 246.309 26.5289 246.309 28.8432V47.1013H253.898V28.8432C253.898 26.0789 253.462 23.6578 252.591 21.5789C251.72 19.5001 250.423 17.8929 248.701 16.7575ZM291.056 22.7361C292.289 25.1789 292.906 28.0501 292.906 31.3504C292.906 34.6932 292.268 37.6182 290.992 40.1244C289.739 42.6108 288.038 44.5507 285.891 45.9423C283.745 47.314 281.364 47.9994 278.749 47.9994C276.814 47.9994 275.041 47.4539 273.424 46.3611C271.877 45.3004 270.636 43.7254 269.69 41.655L267.844 47.1004H262.933V3.00037H270.458V19.7591C271.25 18.4847 272.209 17.4524 273.36 16.6942C275.04 15.5796 277.026 15.0218 279.322 15.0218C281.831 15.0218 284.105 15.6968 286.145 17.0477C288.208 18.376 289.844 20.2724 291.056 22.7361ZM285.317 31.3504C285.317 29.4426 284.987 27.7825 284.328 26.3673C283.669 24.9312 282.755 23.8176 281.586 23.0244C280.437 22.2322 279.109 21.8351 277.6 21.8351C276.346 21.8351 275.177 22.1462 274.093 22.7673C273.009 23.3676 272.126 24.2449 271.446 25.403C270.787 26.5384 270.458 27.9205 270.458 29.5494V33.278C270.458 34.8417 270.808 36.2124 271.51 37.3923C272.211 38.5721 273.114 39.4929 274.221 40.1566C275.326 40.8004 276.474 41.1218 277.665 41.1218C279.131 41.1218 280.438 40.7143 281.587 39.9004C282.735 39.0864 283.639 37.9501 284.297 36.4932C284.976 35.0364 285.317 33.3215 285.317 31.3504ZM327 27.2361V47.1013H320.431L319.81 42.1655C318.986 43.8587 317.834 45.2455 316.318 46.2968C314.702 47.4322 312.693 48.0004 310.292 48.0004C307.634 48.0004 305.413 47.54 303.628 46.6182C301.863 45.6757 300.535 44.4429 299.642 42.9218C298.749 41.4016 298.303 39.751 298.303 37.9727C298.303 36.0007 298.813 34.351 299.833 33.0227C300.873 31.6727 302.341 30.6659 304.232 30.0013C306.125 29.3159 308.356 28.9727 310.929 28.9727C312.608 28.9727 314.192 29.1023 315.68 29.3585C316.952 29.5749 318.216 29.8671 319.475 30.2055V26.9799C319.475 24.7932 319.028 23.1766 318.135 22.1263C317.263 21.076 315.775 20.5513 313.671 20.5513C312.459 20.5513 311.407 20.7328 310.514 21.0968C309.622 21.4617 308.931 21.9864 308.441 22.6718C307.973 23.3364 307.74 24.1504 307.74 25.1147H299.514C299.514 22.7578 300.077 20.8406 301.204 19.3611C302.33 17.8617 303.947 16.7689 306.051 16.0825C308.177 15.3754 310.717 15.0218 313.672 15.0218C316.35 15.0218 318.689 15.4614 320.687 16.3406C322.684 17.1971 324.236 18.5263 325.342 20.3263C326.447 22.1254 327 24.4293 327 27.2361ZM318.614 38.6147C319.187 37.5861 319.475 36.5575 319.475 35.5289V34.6252C318.496 34.3397 317.467 34.0939 316.35 33.9218C314.967 33.7072 313.672 33.6004 312.46 33.6004C310.675 33.6004 309.208 33.9331 308.061 34.5968C306.912 35.2614 306.338 36.3864 306.338 37.9718C306.338 39.1289 306.805 40.1244 307.741 40.9611C308.676 41.7968 310.164 42.2147 312.206 42.2147C313.756 42.2147 315.076 41.8715 316.16 41.1851C317.243 40.5007 318.061 39.6432 318.614 38.6147Z" fill="black"/>
</svg>
