<svg width="398" height="468" viewBox="0 0 398 468" fill="none" xmlns="http://www.w3.org/2000/svg">
<path fill-rule="evenodd" clip-rule="evenodd" d="M290.354 55.3912L344.755 0.990234C360.154 16.3897 360.154 41.3571 344.755 56.7565L323.966 77.5454C313.582 69.0795 302.326 61.6428 290.354 55.3912ZM72.4057 384.871C28.1909 348.452 0 293.28 0 231.525C0 121.857 88.9037 32.953 198.572 32.953C231.684 32.953 262.903 41.0576 290.354 55.3912L184.169 161.576C168.769 176.976 168.769 201.943 184.169 217.342L323.966 77.5454C368.624 113.957 397.144 169.411 397.144 231.525C397.144 341.193 308.24 430.097 198.572 430.097C165.089 430.097 133.541 421.81 105.869 407.175L212.051 300.992C227.451 285.593 227.451 260.625 212.051 245.226L72.4057 384.871ZM72.4057 384.871C82.737 393.381 93.9431 400.867 105.869 407.175L46.0328 467.011C30.6334 451.611 30.6334 426.644 46.0328 411.244L72.4057 384.871Z" fill="#E9FAF8"/>
<path fill-rule="evenodd" clip-rule="evenodd" d="M290.354 55.3912L344.755 0.990234C360.154 16.3897 360.154 41.3571 344.755 56.7565L323.966 77.5454C313.582 69.0795 302.326 61.6428 290.354 55.3912ZM72.4057 384.871C28.1909 348.452 0 293.28 0 231.525C0 121.857 88.9037 32.953 198.572 32.953C231.684 32.953 262.903 41.0576 290.354 55.3912L184.169 161.576C168.769 176.976 168.769 201.943 184.169 217.342L323.966 77.5454C368.624 113.957 397.144 169.411 397.144 231.525C397.144 341.193 308.24 430.097 198.572 430.097C165.089 430.097 133.541 421.81 105.869 407.175L212.051 300.992C227.451 285.593 227.451 260.625 212.051 245.226L72.4057 384.871ZM72.4057 384.871C82.737 393.381 93.9431 400.867 105.869 407.175L46.0328 467.011C30.6334 451.611 30.6334 426.644 46.0328 411.244L72.4057 384.871Z" fill="url(#paint0_linear_2393_3253)"/>
<defs>
<linearGradient id="paint0_linear_2393_3253" x1="-172.158" y1="768.688" x2="-494.602" y2="-606.181" gradientUnits="userSpaceOnUse">
<stop stop-color="#00196F"/>
<stop offset="0.330483" stop-color="#13B0D9"/>
<stop offset="0.61175" stop-color="#9AF3FA"/>
</linearGradient>
</defs>
</svg>
