<svg width="51" height="10" viewBox="0 0 51 10" fill="none" xmlns="http://www.w3.org/2000/svg">
<path d="M30.538 4.55799C30.761 4.77099 30.761 5.11499 30.538 5.32599L25.928 9.72599C25.704 9.93899 25.345 9.93899 25.124 9.72599L24.598 9.22399C24.373 9.00899 24.378 8.65799 24.608 8.44899L27.466 5.84899H20.65C20.335 5.84899 20.081 5.60599 20.081 5.30599V4.58199C20.081 4.28099 20.335 4.03899 20.65 4.03899H27.466L24.608 1.43899C24.376 1.22799 24.371 0.875994 24.598 0.661994L25.125 0.159994C25.348 -0.0530059 25.708 -0.0530059 25.929 0.159994L30.538 4.55799ZM9.14298 4.03899H2.94698L5.54498 1.43899C5.75398 1.22799 5.75898 0.878994 5.55398 0.663994L5.07498 0.159994C4.87398 -0.0530059 4.54698 -0.0530059 4.34398 0.159994L0.152982 4.56199C-0.0500176 4.77099 -0.0500176 5.11599 0.152982 5.32899L4.34398 9.72799C4.54498 9.94099 4.87198 9.94099 5.07498 9.72799L5.55398 9.22399C5.76098 9.00899 5.75598 8.65999 5.54498 8.44899L2.94698 5.84899H9.14298C9.42998 5.84899 9.66098 5.60699 9.66098 5.30699V4.58199C9.66098 4.28099 9.42998 4.03899 9.14298 4.03899ZM50.573 0.255994C50.531 0.212994 50.472 0.189994 50.413 0.189994H49.518C49.488 0.189994 49.457 0.195994 49.429 0.208994C49.401 0.220994 49.375 0.237994 49.355 0.260994C49.334 0.281994 49.317 0.308994 49.306 0.337994C49.295 0.365994 49.29 0.397994 49.292 0.427994L49.366 1.98999C48.928 1.47199 48.382 1.05699 47.766 0.772994C47.151 0.487994 46.481 0.340994 45.802 0.341994C43.224 0.341994 41.121 2.44599 41.123 5.02399C41.125 7.60699 43.219 9.69999 45.802 9.69999C46.961 9.70099 48.078 9.27099 48.938 8.49399C48.96 8.47299 48.979 8.44799 48.992 8.42099C49.005 8.39299 49.013 8.362 49.013 8.332C49.015 8.301 49.009 8.26999 48.997 8.24099C48.985 8.21299 48.969 8.18699 48.946 8.16499L48.305 7.52299C48.264 7.48299 48.209 7.45999 48.153 7.45799C48.095 7.45599 48.04 7.47599 47.997 7.51399C47.489 7.95899 46.858 8.24099 46.188 8.31899C45.517 8.39699 44.838 8.26899 44.243 7.95299C43.647 7.63599 43.162 7.14399 42.852 6.54499C42.542 5.94399 42.423 5.26499 42.51 4.59499C42.596 3.92599 42.885 3.29899 43.337 2.79699C43.789 2.29599 44.383 1.94399 45.041 1.78999C45.697 1.63499 46.387 1.68399 47.015 1.93099C47.643 2.17699 48.182 2.60999 48.559 3.16999L46.643 3.07699C46.612 3.07599 46.582 3.08099 46.553 3.09199C46.524 3.10299 46.498 3.11899 46.476 3.13999C46.454 3.16099 46.436 3.18699 46.424 3.21499C46.412 3.24299 46.405 3.27399 46.405 3.30399V4.19899C46.405 4.25999 46.429 4.31699 46.471 4.35899C46.513 4.40199 46.572 4.42499 46.631 4.42499H50.41C50.47 4.42499 50.528 4.40199 50.57 4.35899C50.612 4.31699 50.636 4.25899 50.636 4.19899V0.415994C50.639 0.354994 50.615 0.297994 50.573 0.255994Z" fill="currentColor"/>
</svg>
