<svg width="32" height="32" viewBox="0 0 32 32" fill="none" xmlns="http://www.w3.org/2000/svg">
<path d="M4 1H28C29.6569 1 31 2.34315 31 4V28C31 29.6569 29.6569 31 28 31H4C2.34315 31 1 29.6569 1 28V4C1 2.34315 2.34315 1 4 1Z" fill="#131313" stroke="#131313" stroke-width="2"/>
<path d="M6 5C6 6.10464 5.10458 7 4 7C2.89542 7 2 6.10464 2 5C2 3.89536 2.89542 3 4 3C5.10458 3 6 3.89536 6 5Z" fill="white"/>
<path fill-rule="evenodd" clip-rule="evenodd" d="M2 12.3922C2 11.0713 3.12466 10 4.51197 10H27.488C28.8753 10 30 11.0713 30 12.3922V27.6078C30 28.9287 28.8753 30 27.488 30H4.51197C3.12466 30 2 28.9287 2 27.6078V12.3922ZM5.58853 26L9.41638 21.5L5.58853 17H9L13 21.5L9 26H5.58853ZM24 24H15V26H24V24Z" fill="white"/>
<path d="M10 7C11.1046 7 12 6.10464 12 5C12 3.89536 11.1046 3 10 3C8.89542 3 8 3.89536 8 5C8 6.10464 8.89542 7 10 7Z" fill="white"/>
<path d="M17.7324 3C16.7756 3 16 3.89543 16 5C16 6.10457 16.7756 7 17.7324 7H28.2676C29.2244 7 30 6.10457 30 5C30 3.89543 29.2244 3 28.2676 3H17.7324Z" fill="white"/>
</svg>
