<svg width="201" height="67" viewBox="0 0 201 67" fill="none" xmlns="http://www.w3.org/2000/svg">
<path d="M85.708 35.2275C85.708 44.6995 78.2981 51.6797 69.2041 51.6797C60.1111 51.6797 52.7012 44.6995 52.7012 35.2275C52.7012 25.6885 60.1111 18.7754 69.2041 18.7754C78.2981 18.7754 85.708 25.6885 85.708 35.2275ZM78.4829 35.2275C78.4829 29.3085 74.1891 25.2583 69.2041 25.2583C64.2201 25.2583 59.9248 29.3085 59.9248 35.2275C59.9248 41.0875 64.2191 45.1963 69.2041 45.1963C74.1891 45.1963 78.4829 41.0795 78.4829 35.2275Z" fill="black"/>
<path d="M121.311 35.2275C121.311 44.6995 113.901 51.6797 104.808 51.6797C95.7141 51.6797 88.3042 44.6995 88.3042 35.2275C88.3042 25.6965 95.7141 18.7754 104.808 18.7754C113.901 18.7754 121.311 25.6885 121.311 35.2275ZM114.086 35.2275C114.086 29.3085 109.792 25.2583 104.807 25.2583C99.8221 25.2583 95.5278 29.3085 95.5278 35.2275C95.5278 41.0875 99.8221 45.1963 104.807 45.1963C109.792 45.1963 114.086 41.0795 114.086 35.2275Z" fill="black"/>
<path d="M155.431 19.7695V49.3057C155.431 61.4557 148.265 66.4175 139.795 66.4175C131.821 66.4175 127.023 61.0847 125.212 56.7227L131.503 54.1035C132.623 56.7815 135.367 59.9414 139.788 59.9414C145.21 59.9414 148.57 56.5963 148.57 50.2983V47.9316H148.318C146.701 49.9276 143.585 51.6694 139.655 51.6694C131.429 51.6694 123.893 44.5047 123.893 35.2847C123.893 25.9987 131.429 18.7734 139.655 18.7734C143.578 18.7734 146.694 20.5166 148.318 22.4526H148.57V19.7744H155.431V19.7695ZM149.082 35.2866C149.082 29.4946 145.218 25.2583 140.3 25.2583C135.316 25.2583 131.14 29.4936 131.14 35.2866C131.14 41.0206 135.316 45.1963 140.3 45.1963C145.218 45.1963 149.082 41.0206 149.082 35.2866Z" fill="black"/>
<path d="M166.743 2.45703V50.6699H159.696V2.45703H166.743Z" fill="black"/>
<path d="M194.201 40.6416L199.809 44.3794C197.999 47.0574 193.638 51.6704 186.101 51.6704C176.755 51.6704 169.775 44.4467 169.775 35.2197C169.775 25.4367 176.815 18.7676 185.292 18.7676C193.829 18.7676 198.006 25.5614 199.371 29.2324L200.12 31.1025L178.127 40.2114C179.811 43.5114 182.43 45.1953 186.101 45.1953C189.781 45.1953 192.333 43.3846 194.201 40.6416ZM176.941 34.7217L191.642 28.6167C190.834 26.5627 188.401 25.1313 185.538 25.1313C181.867 25.1313 176.756 28.3727 176.941 34.7217Z" fill="black"/>
<path d="M26.0278 30.9468V23.9678H49.5488C49.7788 25.1838 49.8979 26.6232 49.8979 28.1802C49.8979 33.4172 48.466 39.8919 43.853 44.5059C39.366 49.1789 33.6321 51.6709 26.0371 51.6709C11.9591 51.6709 0.121094 40.204 0.121094 26.126C0.121094 12.048 11.9591 0.581055 26.0371 0.581055C33.8251 0.581055 39.373 3.63712 43.542 7.62012L38.6172 12.5449C35.6282 9.74192 31.5778 7.56104 26.0298 7.56104C15.7498 7.56104 7.70898 15.846 7.70898 26.127C7.70898 36.407 15.7498 44.6929 26.0298 44.6929C32.6978 44.6929 36.4962 42.015 38.9292 39.582C40.9022 37.609 42.1999 34.7899 42.7119 30.9409L26.0278 30.9468Z" fill="black"/>
</svg>
