<svg width="468" height="71" viewBox="0 0 468 71" fill="none" xmlns="http://www.w3.org/2000/svg">
<path d="M423.226 39.677C424.772 38.868 425.918 37.757 426.665 36.343C427.413 34.928 427.787 33.306 427.787 31.477C427.787 29.649 427.413 28.017 426.665 26.581C425.918 25.146 424.767 24.019 423.21 23.201C421.653 22.373 419.663 21.958 417.238 21.958H406.75V53H410.51V40.874H417.3C417.572 40.874 417.819 40.851 418.079 40.84L424.635 53H429L421.988 40.2C422.427 40.051 422.84 39.876 423.226 39.677ZM410.509 25.293H417.116C418.795 25.293 420.143 25.551 421.163 26.066C422.184 26.571 422.927 27.289 423.392 28.218C423.857 29.147 424.09 30.234 424.09 31.476C424.09 32.719 423.857 33.79 423.392 34.69C422.938 35.579 422.2 36.266 421.179 36.752C420.169 37.236 418.835 37.48 417.178 37.48H410.509V25.293V25.293ZM333.67 21.958H356.95V25.293H347.189V53H343.43V25.293H333.669V21.958H333.67ZM318.903 40.89C319.499 41.89 319.798 43.118 319.798 44.573C319.798 46.251 319.358 47.766 318.479 49.121C317.61 50.475 316.337 51.551 314.66 52.35C312.992 53.148 310.967 53.547 308.582 53.547C306.359 53.547 304.435 53.188 302.808 52.471C301.191 51.753 299.917 50.753 298.988 49.47C298.069 48.187 297.549 46.696 297.427 44.998H301.307C301.408 46.17 301.802 47.141 302.49 47.908C303.187 48.666 304.066 49.232 305.127 49.605C306.198 49.969 307.351 50.151 308.583 50.151C310.019 50.151 311.307 49.919 312.448 49.454C313.591 48.979 314.494 48.322 315.161 47.483C315.828 46.634 316.161 45.644 316.161 44.512C316.161 43.482 315.873 42.643 315.298 41.996C314.722 41.35 313.964 40.824 313.025 40.42C312.085 40.016 311.069 39.662 309.978 39.358L306.159 38.267C303.733 37.57 301.814 36.575 300.399 35.281C298.984 33.988 298.277 32.296 298.277 30.204C298.277 28.466 298.747 26.95 299.687 25.656C300.635 24.353 301.911 23.343 303.506 22.625C305.112 21.897 306.905 21.534 308.887 21.534C310.888 21.534 312.665 21.892 314.222 22.61C315.778 23.317 317.011 24.287 317.92 25.52C318.84 26.752 319.324 28.152 319.374 29.718H315.737C315.555 28.182 314.817 26.989 313.524 26.141C312.23 25.292 310.644 24.868 308.765 24.868C307.39 24.868 306.188 25.091 305.157 25.535C304.137 25.98 303.338 26.592 302.762 27.369C302.197 28.147 301.913 29.031 301.913 30.021C301.913 30.85 302.11 31.562 302.505 32.159C302.909 32.745 303.423 33.235 304.05 33.629C304.677 34.014 305.333 34.332 306.021 34.584C306.708 34.827 307.34 35.023 307.916 35.176L311.068 36.025C311.877 36.237 312.776 36.53 313.766 36.904C314.767 37.278 315.722 37.788 316.631 38.435C317.549 39.07 318.306 39.89 318.903 40.89ZM465.025 21.958V25.293H455.264V53H451.505V25.293H441.743V21.958H465.025ZM377.246 21.958L365.848 53H369.788L372.909 44.209H385.463L388.584 53H392.524L381.127 21.958H377.246ZM374.093 40.874L379.065 26.869H379.308L384.28 40.874H374.093Z" fill="black" fill-opacity="0.6"/>
<path d="M75.271 15.101C75.271 15.101 50.321 -3.72899 30.961 0.670005C30.386 0.797005 29.819 0.954005 29.261 1.14101C26.613 1.90201 24.297 3.52901 22.681 5.76101C22.425 6.14201 22.188 6.53501 21.971 6.94101L14.821 19.071L27.171 21.491C29.699 23.271 32.574 24.499 35.608 25.094C38.643 25.688 41.768 25.636 44.781 24.942L66.781 29.242L75.271 15.101Z" fill="#BBBDBF"/>
<path opacity="0.29" d="M75.271 15.101C75.271 15.101 50.321 -3.72899 30.961 0.670005C30.386 0.797005 29.819 0.954005 29.261 1.14101C26.613 1.90201 24.297 3.52901 22.681 5.76101C22.425 6.14201 22.188 6.53501 21.971 6.94101L14.821 19.071L27.171 21.491C29.699 23.271 32.574 24.499 35.608 25.094C38.643 25.688 41.768 25.636 44.781 24.942L66.781 29.242L75.271 15.101Z" fill="url(#paint0_linear_45_88)"/>
<path d="M22.46 14.86C21.882 14.991 21.311 15.151 20.75 15.34C12.85 17.89 10.15 25.27 14.69 31.75C19.23 38.229 29.32 41.399 37.23 38.85L66.72 29.29C66.72 29.291 41.85 10.461 22.46 14.86Z" fill="#929497"/>
<path opacity="0.34" d="M22.46 14.86C21.882 14.991 21.311 15.151 20.75 15.34C12.85 17.89 10.15 25.27 14.69 31.75C19.23 38.229 29.32 41.399 37.23 38.85L66.72 29.29C66.72 29.291 41.85 10.461 22.46 14.86Z" fill="url(#paint1_linear_45_88)"/>
<path d="M61.35 36.149C56.81 29.67 46.72 26.45 38.82 29.009L9.28 38.56L0 55.12L52.83 64.12L62.3 47.28C64.19 43.96 64 39.899 61.3 36.109L61.35 36.149Z" fill="url(#paint2_linear_45_88)"/>
<path d="M52.07 52.66C47.53 46.181 37.46 42.961 29.54 45.52L0 55.12C0 55.12 25 73.95 44.31 69.551C44.884 69.424 45.452 69.267 46.01 69.081C53.92 66.521 56.62 59.141 52.07 52.66Z" fill="url(#paint3_linear_45_88)"/>
<path d="M126.56 44.66C126.56 49.261 122.96 53.06 117.16 53.06C115.341 53.096 113.533 52.759 111.847 52.072C110.162 51.384 108.635 50.359 107.36 49.06L109.17 46.76C111.344 48.876 114.238 50.091 117.27 50.159C120.67 50.159 123.47 48.159 123.47 44.76C123.47 36.959 107.97 38.86 107.97 29.26C107.97 24.76 111.97 20.959 117.67 20.959C120.718 20.869 123.685 21.941 125.97 23.959L124.46 26.56C122.597 24.865 120.18 23.905 117.66 23.86C113.66 23.86 111.16 26.46 111.06 29.16C111.06 36.561 126.56 34.46 126.56 44.66ZM274.77 37.46C274.77 47.36 268.47 52.96 259.169 52.96H249.169V21.86H259.169C268.47 21.86 274.77 27.561 274.77 37.46ZM271.57 37.46C271.67 29.16 266.47 24.66 258.871 24.66H252.17L252.07 50.261H258.77C266.371 50.261 271.47 45.761 271.57 37.46ZM225.87 52.96H228.87L228.97 21.86H225.97L225.87 52.96ZM195.07 21.761H192.07L191.87 52.761H209.37V50.061H194.97L195.07 21.761ZM172.916 30.973C173.7 32.906 174.093 34.975 174.07 37.061C174.097 39.162 173.709 41.248 172.929 43.199C172.15 45.151 170.993 46.929 169.526 48.433C168.059 49.938 166.309 51.138 164.378 51.966C162.447 52.795 160.372 53.235 158.27 53.261H158.17C156.069 53.235 153.994 52.795 152.062 51.966C150.131 51.138 148.382 49.938 146.915 48.433C145.448 46.929 144.291 45.151 143.511 43.199C142.732 41.248 142.344 39.162 142.37 37.061V36.96C142.361 34.874 142.767 32.808 143.563 30.88C144.36 28.952 145.533 27.202 147.013 25.732C148.492 24.262 150.25 23.1 152.182 22.316C154.115 21.531 156.184 21.138 158.27 21.161C160.356 21.152 162.423 21.557 164.351 22.354C166.279 23.151 168.029 24.324 169.499 25.803C170.969 27.282 172.131 29.04 172.916 30.973ZM170.87 37.061C170.87 29.661 165.27 23.96 158.27 23.96C156.578 23.963 154.903 24.303 153.343 24.961C151.784 25.618 150.371 26.581 149.188 27.792C148.006 29.002 147.076 30.437 146.455 32.012C145.834 33.586 145.533 35.269 145.57 36.96C145.57 44.561 151.17 50.36 158.17 50.46C161.617 50.382 164.891 48.938 167.272 46.445C169.654 43.953 170.948 40.617 170.87 37.17V37.061V37.061Z" fill="black"/>
<defs>
<linearGradient id="paint0_linear_45_88" x1="11.1396" y1="-0.187495" x2="70.0898" y2="28.4223" gradientUnits="userSpaceOnUse">
<stop offset="0.12" stop-color="#BBBDBF"/>
<stop offset="0.3" stop-color="#F1F1F2"/>
<stop offset="1" stop-color="#D0D2D3"/>
</linearGradient>
<linearGradient id="paint1_linear_45_88" x1="43.4414" y1="13.8125" x2="33.1211" y2="48.1938" gradientUnits="userSpaceOnUse">
<stop stop-color="#BBBDBF"/>
<stop offset="0.47" stop-color="#929497"/>
<stop offset="1" stop-color="#58595B"/>
</linearGradient>
<linearGradient id="paint2_linear_45_88" x1="6.8212" y1="28.7871" x2="66.3813" y2="69.267" gradientUnits="userSpaceOnUse">
<stop stop-color="#58595B"/>
<stop offset="0.54" stop-color="#929497"/>
<stop offset="1" stop-color="#58595B"/>
</linearGradient>
<linearGradient id="paint3_linear_45_88" x1="33.7226" y1="33.6406" x2="9.6616" y2="121.784" gradientUnits="userSpaceOnUse">
<stop stop-color="#808184"/>
<stop offset="0.47" stop-color="#404041"/>
<stop offset="1" stop-color="#231F20"/>
</linearGradient>
</defs>
</svg>
