<svg width="508" height="92" viewBox="0 0 508 92" fill="none" xmlns="http://www.w3.org/2000/svg">
<path d="M425.028 70.816L411.448 45.65L402.9 55.965V70.817H395.729V22.684H402.9V45.995L421.516 22.684H429.787L416.279 39.6L433.444 70.817H425.028V70.816ZM448.949 70.816V22.684H456.12V70.817H448.949V70.816ZM493.484 29.56V70.817H486.316V29.56H472.664V22.684H507.133V29.56H493.484Z" fill="black" fill-opacity="0.6"/>
<path d="M121.469 71.332C117.533 71.433 113.659 70.322 110.357 68.147C107.272 66.084 104.981 63.006 103.869 59.432L110.633 56.911C111.57 59.106 113.102 60.987 115.05 62.336C117.028 63.68 119.365 64.376 121.745 64.331C124.033 64.452 126.291 63.759 128.128 62.371C128.928 61.69 129.559 60.829 129.973 59.857C130.386 58.884 130.57 57.828 130.509 56.771C130.519 55.786 130.294 54.814 129.854 53.936C129.471 53.151 128.97 52.43 128.37 51.8C127.61 51.099 126.749 50.521 125.816 50.085C124.665 49.502 123.711 49.059 122.952 48.755C122.193 48.452 121.077 48.044 119.605 47.529C117.764 46.877 116.383 46.363 115.464 45.99C114.217 45.452 113.007 44.833 111.84 44.135C110.585 43.459 109.443 42.585 108.459 41.546C107.607 40.53 106.919 39.384 106.423 38.15C105.47 35.797 105.27 33.2 105.852 30.725C106.434 28.25 107.768 26.024 109.666 24.361C112.427 21.888 116.177 20.651 120.916 20.651C124.872 20.651 128.128 21.538 130.682 23.311C133.161 24.983 134.981 27.486 135.824 30.381L129.198 32.62C128.532 31.103 127.408 29.841 125.988 29.016C124.271 28.049 122.327 27.578 120.364 27.651C118.44 27.539 116.533 28.081 114.946 29.191C114.298 29.7 113.781 30.361 113.438 31.117C113.096 31.872 112.938 32.7 112.979 33.531C112.985 34.168 113.123 34.797 113.384 35.375C113.646 35.954 114.025 36.471 114.497 36.892C115.414 37.807 116.49 38.543 117.672 39.062C118.776 39.529 120.456 40.159 122.711 40.952C124.09 41.467 125.113 41.851 125.781 42.107C126.448 42.363 127.426 42.795 128.714 43.402C129.747 43.865 130.74 44.416 131.682 45.047C132.526 45.663 133.332 46.329 134.097 47.042C134.929 47.774 135.64 48.637 136.203 49.597C136.739 50.593 137.156 51.651 137.445 52.746C137.797 54.034 137.972 55.365 137.963 56.702C137.963 61.275 136.422 64.857 133.339 67.446C130.256 70.037 126.299 71.332 121.469 71.332ZM165.707 70.492L149.143 21.492H156.874L167.847 55.652C168.454 57.489 168.961 59.358 169.365 61.252C169.77 59.358 170.276 57.489 170.884 55.652L181.72 21.492H189.38L172.885 70.492H165.707ZM204.011 70.492V21.492H233.965V28.352H211.189V41.791H225.889V48.651H211.189V63.63H235.482V70.49H204.011V70.492ZM253.771 70.492V21.492H260.951V63.492H284.554V70.492H253.771ZM311.606 28.492V70.492H304.428V28.492H290.764V21.492H325.271V28.492H311.606V28.492ZM340.109 70.492V21.492H370.063V28.352H347.288V41.791H361.988V48.651H347.288V63.63H371.581V70.49H340.109V70.492Z" fill="black"/>
<path d="M34.041 4.09401C46.069 -3.67799 62.705 -0.0539932 71.128 12.173C73.127 15.011 74.546 18.225 75.304 21.626C76.061 25.027 76.141 28.549 75.539 31.982C74.956 35.26 73.723 38.385 71.915 41.168C74.553 46.27 75.438 52.117 74.431 57.787C73.836 61.152 72.555 64.355 70.669 67.19C68.783 70.025 66.336 72.429 63.482 74.251L42.358 87.906C30.332 95.677 13.696 92.055 5.272 79.827C3.273 76.989 1.854 73.775 1.096 70.374C0.338003 66.973 0.258003 63.451 0.860003 60.018C1.444 56.74 2.677 53.615 4.485 50.832C1.846 45.73 0.960003 39.883 1.968 34.213C2.564 30.848 3.845 27.645 5.73 24.81C7.615 21.975 10.063 19.571 12.917 17.749L34.041 4.09401ZM21.924 80.465C25.145 81.676 28.654 81.855 31.978 80.979C33.497 80.567 34.944 79.922 36.27 79.066L57.393 65.413C59.109 64.318 60.581 62.872 61.715 61.167C62.849 59.463 63.62 57.537 63.978 55.513C64.34 53.449 64.292 51.33 63.836 49.285C63.38 47.239 62.526 45.306 61.324 43.599C59.366 40.737 56.59 38.553 53.369 37.342C50.148 36.131 46.639 35.951 43.314 36.828C41.796 37.239 40.35 37.885 39.025 38.74L30.964 43.95C30.563 44.209 30.126 44.404 29.667 44.528C28.666 44.792 27.608 44.737 26.638 44.372C25.668 44.007 24.832 43.349 24.242 42.486C23.88 41.971 23.623 41.388 23.486 40.772C23.349 40.155 23.335 39.517 23.444 38.895C23.552 38.285 23.784 37.705 24.126 37.191C24.467 36.677 24.911 36.242 25.428 35.913L46.553 22.259C46.954 22 47.391 21.805 47.85 21.68C48.851 21.416 49.908 21.471 50.878 21.836C51.848 22.201 52.684 22.859 53.273 23.722C53.918 24.649 54.22 25.777 54.125 26.908L54.053 27.702L54.838 27.944C57.808 28.852 60.603 30.269 63.102 32.133L64.184 32.938L64.582 31.708C64.795 31.054 64.964 30.385 65.087 29.707C65.449 27.643 65.4 25.525 64.945 23.479C64.49 21.433 63.635 19.5 62.433 17.794C60.475 14.932 57.699 12.747 54.478 11.536C51.257 10.325 47.748 10.146 44.424 11.022C42.905 11.434 41.458 12.08 40.132 12.935L19.008 26.591C17.292 27.686 15.82 29.131 14.686 30.836C13.552 32.54 12.782 34.466 12.424 36.49C12.062 38.554 12.11 40.672 12.566 42.718C13.022 44.764 13.876 46.697 15.078 48.403C17.036 51.265 19.813 53.45 23.034 54.661C26.255 55.872 29.764 56.051 33.088 55.174C34.606 54.763 36.052 54.118 37.378 53.264L45.44 48.052C45.84 47.793 46.277 47.599 46.736 47.474C47.737 47.211 48.795 47.266 49.765 47.631C50.735 47.995 51.571 48.654 52.161 49.517C52.523 50.032 52.78 50.614 52.917 51.23C53.055 51.847 53.069 52.485 52.961 53.107C52.853 53.717 52.62 54.297 52.278 54.811C51.936 55.324 51.493 55.76 50.976 56.09L29.848 69.742C29.447 70.001 29.01 70.196 28.551 70.32C27.55 70.584 26.493 70.529 25.523 70.165C24.553 69.8 23.717 69.142 23.128 68.279C22.482 67.352 22.18 66.224 22.276 65.093L22.348 64.298L21.563 64.057C18.594 63.148 15.799 61.732 13.299 59.869L12.217 59.062L11.819 60.292C11.606 60.946 11.437 61.615 11.315 62.293C10.953 64.357 11.001 66.475 11.457 68.521C11.913 70.567 12.767 72.5 13.969 74.206C15.927 77.07 18.703 79.254 21.924 80.465Z" fill="black"/>
</svg>
