<svg width="287" height="57" viewBox="0 0 287 57" fill="none" xmlns="http://www.w3.org/2000/svg">
<path d="M157.024 3.72599C155.812 3.05999 154.312 2.72599 152.524 2.72599H143.796V26H148.012V18.136H152.466C154.262 18.136 155.774 17.806 157.002 17.148C158.228 16.48 159.158 15.568 159.788 14.408C160.416 13.25 160.73 11.924 160.73 10.432C160.73 8.95599 160.418 7.63799 159.788 6.47599C159.164 5.30999 158.242 4.39399 157.024 3.72599ZM155.944 12.626C155.626 13.262 155.134 13.762 154.466 14.126C153.8 14.49 152.944 14.67 151.9 14.67H148.014V6.24999H151.878C152.93 6.24999 153.792 6.42799 154.458 6.78399C155.132 7.13399 155.628 7.62199 155.946 8.24999C156.272 8.87799 156.434 9.60599 156.434 10.432C156.434 11.258 156.27 11.988 155.944 12.626ZM128.622 9.35199C127.538 8.66199 126.324 8.31799 124.974 8.31799C123.952 8.31799 123.11 8.49199 122.452 8.84199C121.792 9.18199 121.27 9.59399 120.884 10.08C120.498 10.556 120.198 11.008 119.986 11.432H119.816V2.72599H115.702V26H119.746V23.25H119.984C120.204 23.674 120.512 24.126 120.904 24.602C121.306 25.072 121.836 25.474 122.494 25.808C123.152 26.142 123.982 26.308 124.982 26.308C126.354 26.308 127.58 25.956 128.664 25.252C129.748 24.546 130.604 23.526 131.232 22.184C131.86 20.844 132.176 19.216 132.176 17.298C132.176 15.358 131.854 13.722 131.21 12.39C130.578 11.044 129.712 10.034 128.622 9.35199ZM127.508 20.194C127.198 21.042 126.734 21.714 126.122 22.206C125.508 22.69 124.746 22.932 123.838 22.932C122.966 22.932 122.224 22.698 121.61 22.226C121.004 21.75 120.538 21.088 120.212 20.238C119.894 19.39 119.734 18.402 119.734 17.274C119.734 16.146 119.89 15.162 120.2 14.33C120.518 13.496 120.984 12.848 121.598 12.386C122.212 11.924 122.958 11.692 123.836 11.692C124.752 11.692 125.518 11.93 126.132 12.406C126.746 12.884 127.208 13.542 127.518 14.384C127.828 15.224 127.984 16.186 127.984 17.27C127.986 18.364 127.828 19.338 127.508 20.194ZM175.332 8.54399H179.446V26H175.458V22.898H175.276C174.884 23.874 174.234 24.674 173.332 25.294C172.438 25.916 171.336 26.226 170.026 26.226C168.884 26.226 167.872 25.972 166.992 25.466C166.12 24.95 165.438 24.204 164.946 23.226C164.454 22.242 164.208 21.052 164.208 19.658V8.54399H168.322V19.022C168.322 20.128 168.626 21.006 169.232 21.656C169.838 22.308 170.634 22.634 171.618 22.634C172.224 22.634 172.81 22.486 173.38 22.19C173.946 21.896 174.414 21.456 174.776 20.872C175.148 20.28 175.332 19.542 175.332 18.656V8.54399V8.54399ZM109.654 10.432C108.92 9.71399 108.07 9.18199 107.11 8.84199C106.154 8.49199 105.14 8.31799 104.064 8.31799C102.398 8.31799 100.946 8.69999 99.712 9.46599C98.478 10.222 97.516 11.282 96.826 12.648C96.144 14.004 95.802 15.58 95.802 17.374C95.802 19.2 96.142 20.786 96.826 22.136C97.508 23.476 98.482 24.514 99.746 25.25C101.018 25.976 102.53 26.342 104.28 26.342C105.636 26.342 106.84 26.136 107.894 25.726C108.948 25.31 109.81 24.726 110.486 23.976C111.168 23.218 111.63 22.334 111.872 21.318L108.032 20.886C107.85 21.378 107.58 21.79 107.226 22.124C106.87 22.458 106.45 22.712 105.964 22.886C105.48 23.052 104.938 23.136 104.338 23.136C103.444 23.136 102.664 22.946 101.998 22.568C101.332 22.182 100.812 21.628 100.442 20.908C100.084 20.208 99.908 19.366 99.896 18.398H112.046V17.136C112.046 15.604 111.834 14.286 111.41 13.18C110.98 12.068 110.396 11.152 109.654 10.432ZM99.912 15.626C99.952 14.944 100.106 14.308 100.414 13.728C100.77 13.07 101.266 12.538 101.902 12.138C102.538 11.728 103.278 11.524 104.118 11.524C104.906 11.524 105.596 11.702 106.186 12.058C106.784 12.414 107.25 12.904 107.584 13.524C107.918 14.138 108.088 14.838 108.096 15.626H99.912ZM91.056 2.72599H95.59L89.022 26H84.862L80.204 9.66999H80.022L75.352 26H71.192L64.626 2.72599H69.16L73.354 19.83H73.57L78.046 2.72599H82.172L86.662 19.842H86.866L91.056 2.72599ZM196.778 9.35199C195.696 8.66199 194.482 8.31799 193.132 8.31799C192.11 8.31799 191.266 8.49199 190.61 8.84199C189.95 9.18199 189.426 9.59399 189.04 10.08C188.654 10.556 188.356 11.008 188.142 11.432H187.974V2.72599H183.86V26H187.902V23.25H188.14C188.36 23.674 188.668 24.126 189.062 24.602C189.464 25.072 189.994 25.474 190.652 25.808C191.312 26.142 192.14 26.308 193.14 26.308C194.514 26.308 195.74 25.956 196.824 25.252C197.906 24.546 198.764 23.526 199.39 22.184C200.018 20.844 200.336 19.216 200.336 17.298C200.336 15.358 200.014 13.722 199.37 12.39C198.734 11.044 197.87 10.034 196.778 9.35199ZM195.664 20.194C195.356 21.042 194.89 21.714 194.278 22.206C193.664 22.69 192.902 22.932 191.994 22.932C191.122 22.932 190.38 22.698 189.766 22.226C189.16 21.75 188.696 21.088 188.37 20.238C188.052 19.39 187.892 18.402 187.892 17.274C187.892 16.146 188.048 15.162 188.36 14.33C188.676 13.496 189.142 12.848 189.756 12.386C190.37 11.924 191.116 11.692 191.994 11.692C192.91 11.692 193.676 11.93 194.288 12.406C194.902 12.884 195.364 13.542 195.674 14.384C195.984 15.224 196.138 16.186 196.138 17.27C196.14 18.364 195.984 19.338 195.664 20.194ZM233.464 17.738C234.272 18.512 234.68 19.524 234.69 20.774C234.68 21.872 234.358 22.842 233.722 23.682C233.096 24.516 232.218 25.166 231.098 25.638C229.974 26.106 228.69 26.344 227.234 26.344C225.098 26.344 223.376 25.896 222.074 25.002C220.772 24.1 219.996 22.846 219.746 21.24L223.756 20.854C223.94 21.644 224.324 22.236 224.916 22.64C225.506 23.04 226.276 23.242 227.22 23.242C228.2 23.242 228.984 23.04 229.574 22.64C230.174 22.238 230.47 21.742 230.47 21.152C230.47 20.652 230.278 20.238 229.892 19.912C229.514 19.588 228.924 19.338 228.118 19.162L225.142 18.536C223.466 18.188 222.23 17.6 221.426 16.776C220.624 15.942 220.224 14.89 220.234 13.616C220.224 12.54 220.518 11.608 221.108 10.822C221.71 10.028 222.538 9.41199 223.598 8.97999C224.666 8.53999 225.896 8.32199 227.292 8.32199C229.336 8.32199 230.948 8.75799 232.12 9.62799C233.304 10.5 234.034 11.676 234.316 13.162L230.566 13.572C230.46 13.194 230.274 12.838 230.008 12.504C229.75 12.17 229.402 11.902 228.966 11.698C228.524 11.492 227.988 11.392 227.35 11.392C226.494 11.392 225.774 11.578 225.192 11.948C224.614 12.32 224.33 12.8 224.338 13.392C224.33 13.9 224.516 14.312 224.894 14.63C225.28 14.948 225.918 15.21 226.804 15.414L229.78 16.05C231.432 16.402 232.66 16.966 233.464 17.738ZM270.808 10.432C270.074 9.71399 269.226 9.18199 268.264 8.84199C267.308 8.49199 266.294 8.31799 265.22 8.31799C263.552 8.31799 262.102 8.69999 260.868 9.46599C259.634 10.222 258.67 11.282 257.982 12.648C257.298 14.004 256.958 15.58 256.958 17.374C256.958 19.2 257.298 20.786 257.982 22.136C258.664 23.476 259.638 24.514 260.902 25.25C262.176 25.976 263.686 26.342 265.436 26.342C266.792 26.342 267.998 26.136 269.05 25.726C270.104 25.31 270.968 24.726 271.644 23.976C272.326 23.218 272.788 22.334 273.03 21.318L269.186 20.886C269.004 21.378 268.736 21.79 268.382 22.124C268.028 22.458 267.604 22.712 267.12 22.886C266.636 23.052 266.092 23.136 265.494 23.136C264.6 23.136 263.82 22.946 263.152 22.568C262.486 22.182 261.966 21.628 261.596 20.908C261.238 20.208 261.06 19.366 261.048 18.398H273.198V17.136C273.198 15.604 272.988 14.286 272.562 13.18C272.136 12.068 271.55 11.152 270.808 10.432ZM261.066 15.626C261.108 14.944 261.262 14.308 261.572 13.728C261.928 13.07 262.424 12.538 263.058 12.138C263.694 11.728 264.434 11.524 265.276 11.524C266.064 11.524 266.75 11.702 267.342 12.058C267.94 12.414 268.406 12.904 268.74 13.524C269.072 14.138 269.244 14.838 269.25 15.626H261.066ZM286.628 8.40799V12.194C286.456 12.134 286.178 12.08 285.8 12.034C285.428 11.982 285.07 11.956 284.722 11.956C283.972 11.956 283.296 12.118 282.698 12.444C282.108 12.762 281.64 13.206 281.3 13.774C280.96 14.342 280.788 14.996 280.788 15.738V26H276.674V8.54399H280.662V11.454H280.844C281.162 10.446 281.71 9.66799 282.48 9.12399C283.262 8.57199 284.152 8.29399 285.152 8.29399C285.376 8.29399 285.63 8.30599 285.912 8.32999C286.204 8.34399 286.442 8.37199 286.628 8.40799ZM252.764 11.306C253.264 12.282 253.514 13.476 253.514 14.886V26H249.4V15.524C249.4 14.348 249.098 13.436 248.492 12.784C247.89 12.126 247.05 11.796 245.968 11.796C245.242 11.796 244.59 11.956 244.012 12.274C243.444 12.584 242.998 13.034 242.672 13.626C242.354 14.218 242.194 14.932 242.194 15.774V26H238.08V2.72599H242.104V11.512H242.308C242.718 10.528 243.35 9.74999 244.206 9.18199C245.072 8.60599 246.168 8.31799 247.5 8.31799C248.712 8.31799 249.772 8.57199 250.672 9.07999C251.572 9.58799 252.274 10.33 252.764 11.306ZM215.926 2.26199C216.394 2.69399 216.63 3.21999 216.63 3.84199C216.63 4.45599 216.396 4.97999 215.926 5.41999C215.466 5.85199 214.904 6.06799 214.244 6.06799C213.592 6.06799 213.032 5.85199 212.562 5.41999C212.092 4.97999 211.858 4.45599 211.858 3.84199C211.858 3.21799 212.09 2.69399 212.562 2.26199C213.03 1.82199 213.592 1.60199 214.244 1.60199C214.904 1.60199 215.464 1.82199 215.926 2.26199ZM203.832 2.72599H207.946V26H203.832V2.72599ZM212.176 8.54399H216.29V26H212.176V8.54399Z" fill="black"/>
<path d="M132.086 44.792C131.892 45.274 131.794 45.86 131.794 46.546C131.794 47.244 131.89 47.836 132.08 48.322C132.274 48.81 132.546 49.182 132.896 49.438C133.246 49.694 133.656 49.822 134.124 49.822C134.47 49.822 134.78 49.75 135.054 49.61C135.334 49.468 135.562 49.26 135.742 48.99C135.926 48.716 136.048 48.386 136.104 48.004H138.96C138.912 48.836 138.684 49.57 138.278 50.206C137.874 50.834 137.32 51.33 136.608 51.682C135.898 52.038 135.058 52.216 134.088 52.216C132.97 52.216 132.008 51.98 131.204 51.506C130.404 51.03 129.788 50.366 129.358 49.518C128.932 48.67 128.718 47.696 128.718 46.592C128.718 45.474 128.934 44.494 129.364 43.652C129.8 42.804 130.418 42.142 131.218 41.67C132.018 41.192 132.97 40.954 134.074 40.954C135.026 40.954 135.86 41.126 136.574 41.472C137.288 41.818 137.856 42.304 138.272 42.93C138.688 43.556 138.918 44.288 138.962 45.132H136.106C136.026 44.588 135.814 44.15 135.468 43.818C135.126 43.482 134.678 43.314 134.126 43.314C133.658 43.314 133.248 43.442 132.898 43.696C132.55 43.942 132.282 44.308 132.086 44.792ZM126.436 42.972C126.686 43.436 126.812 43.994 126.812 44.642V52H123.942V50.486H123.858C123.684 50.828 123.448 51.128 123.154 51.388C122.862 51.644 122.508 51.846 122.096 51.992C121.684 52.134 121.208 52.204 120.668 52.204C119.972 52.204 119.352 52.084 118.806 51.842C118.262 51.596 117.832 51.234 117.514 50.756C117.202 50.272 117.046 49.67 117.046 48.952C117.046 48.346 117.158 47.836 117.38 47.424C117.602 47.012 117.906 46.682 118.288 46.43C118.672 46.18 119.108 45.99 119.596 45.862C120.088 45.736 120.604 45.646 121.144 45.592C121.778 45.526 122.29 45.466 122.678 45.406C123.066 45.346 123.348 45.256 123.522 45.136C123.698 45.018 123.786 44.844 123.786 44.61V44.568C123.786 44.118 123.644 43.772 123.36 43.526C123.08 43.28 122.684 43.156 122.166 43.156C121.622 43.156 121.188 43.278 120.866 43.518C120.544 43.754 120.332 44.054 120.228 44.412L117.43 44.186C117.572 43.524 117.85 42.95 118.268 42.468C118.684 41.98 119.222 41.606 119.88 41.344C120.542 41.08 121.31 40.948 122.18 40.948C122.786 40.948 123.366 41.018 123.92 41.16C124.478 41.302 124.972 41.522 125.404 41.82C125.842 42.122 126.186 42.504 126.436 42.972ZM123.808 46.944C123.714 47.004 123.584 47.064 123.418 47.114C123.258 47.16 123.076 47.206 122.872 47.248C122.668 47.288 122.464 47.322 122.262 47.356C122.058 47.384 121.874 47.41 121.708 47.434C121.352 47.486 121.042 47.568 120.778 47.682C120.512 47.796 120.308 47.95 120.16 48.142C120.014 48.332 119.94 48.57 119.94 48.852C119.94 49.264 120.088 49.578 120.388 49.798C120.69 50.01 121.074 50.116 121.538 50.116C121.984 50.116 122.376 50.03 122.716 49.854C123.058 49.674 123.324 49.432 123.518 49.13C123.712 48.828 123.81 48.484 123.81 48.1V46.944H123.808ZM106.538 45.012C106.15 44.666 105.69 44.376 105.16 44.138C104.63 43.9 104.048 43.71 103.412 43.57L102.106 43.258C101.788 43.186 101.49 43.102 101.21 43.002C100.93 42.896 100.684 42.778 100.472 42.638C100.26 42.498 100.092 42.328 99.968 42.134C99.848 41.94 99.796 41.712 99.804 41.452C99.804 41.14 99.894 40.86 100.074 40.614C100.258 40.368 100.524 40.176 100.868 40.038C101.214 39.898 101.638 39.826 102.14 39.826C102.88 39.826 103.464 39.986 103.894 40.302C104.324 40.618 104.568 41.064 104.624 41.638H107.572C107.558 40.77 107.326 40.01 106.876 39.35C106.426 38.69 105.796 38.178 104.988 37.808C104.182 37.436 103.24 37.254 102.16 37.254C101.1 37.254 100.152 37.438 99.32 37.808C98.486 38.178 97.83 38.69 97.352 39.35C96.878 40.008 96.644 40.778 96.648 41.656C96.644 42.732 96.996 43.586 97.706 44.22C98.416 44.854 99.384 45.322 100.612 45.62L102.196 46.016C102.726 46.144 103.174 46.286 103.538 46.442C103.908 46.598 104.186 46.788 104.376 47.01C104.57 47.232 104.668 47.508 104.668 47.834C104.668 48.184 104.562 48.494 104.348 48.764C104.136 49.036 103.834 49.244 103.446 49.396C103.064 49.548 102.612 49.622 102.09 49.622C101.56 49.622 101.084 49.542 100.662 49.382C100.246 49.216 99.912 48.972 99.662 48.65C99.416 48.324 99.276 47.918 99.244 47.43H96.268C96.292 48.476 96.544 49.354 97.028 50.064C97.516 50.77 98.192 51.302 99.06 51.662C99.932 52.022 100.954 52.202 102.128 52.202C103.312 52.202 104.324 52.026 105.162 51.67C106.004 51.308 106.648 50.804 107.094 50.156C107.544 49.504 107.77 48.732 107.776 47.842C107.772 47.234 107.66 46.698 107.442 46.228C107.226 45.764 106.926 45.358 106.538 45.012ZM151.054 41.092H147.582L144.088 45.232H143.924V37.454H140.898V52H143.924V48.538L144.744 47.602L147.716 52H151.26L147.006 45.816L151.054 41.092ZM114.984 49.678C114.842 49.702 114.7 49.714 114.558 49.714C114.354 49.714 114.174 49.682 114.018 49.622C113.866 49.56 113.748 49.454 113.662 49.302C113.578 49.146 113.534 48.928 113.534 48.65V43.364H115.586V41.092H113.534V38.476H110.508V41.092H109.016V43.364H110.508V49.046C110.504 49.76 110.652 50.352 110.956 50.822C111.26 51.29 111.684 51.636 112.228 51.86C112.778 52.082 113.416 52.18 114.146 52.152C114.538 52.138 114.872 52.098 115.146 52.032C115.422 51.97 115.634 51.914 115.786 51.868L115.31 49.616C115.236 49.626 115.126 49.648 114.984 49.678ZM181.86 49.678C181.72 49.702 181.574 49.714 181.434 49.714C181.23 49.714 181.052 49.682 180.894 49.622C180.742 49.56 180.624 49.454 180.538 49.302C180.452 49.146 180.41 48.928 180.41 48.65V43.364H182.462V41.092H180.41V38.476H177.384V41.092H175.894V43.364H177.384V49.046C177.378 49.76 177.528 50.352 177.832 50.822C178.136 51.29 178.558 51.636 179.104 51.86C179.652 52.082 180.294 52.18 181.022 52.152C181.414 52.138 181.748 52.098 182.024 52.032C182.298 51.97 182.512 51.914 182.662 51.868L182.186 49.616C182.11 49.626 182 49.648 181.86 49.678ZM188.348 49.586V49.508L193.362 43.058V41.092H184.564V43.506H189.72V43.584L184.378 50.196V52H193.548V49.586H188.348ZM172.73 36.624C172.28 36.624 171.894 36.776 171.574 37.08C171.256 37.378 171.098 37.736 171.098 38.152C171.098 38.574 171.256 38.936 171.574 39.238C171.894 39.536 172.282 39.688 172.73 39.688C173.178 39.688 173.564 39.538 173.882 39.238C174.202 38.936 174.364 38.574 174.364 38.152C174.364 37.736 174.202 37.378 173.882 37.08C173.564 36.776 173.18 36.624 172.73 36.624ZM163.364 46.132C163.666 46.65 163.818 47.264 163.818 47.98C163.818 48.752 163.626 49.44 163.244 50.046C162.866 50.648 162.304 51.122 161.56 51.474C160.816 51.824 159.898 52 158.81 52H152.598V37.456H158.42C159.49 37.456 160.382 37.614 161.098 37.93C161.812 38.248 162.35 38.688 162.712 39.252C163.072 39.81 163.252 40.454 163.252 41.184C163.252 41.752 163.138 42.252 162.912 42.682C162.684 43.108 162.37 43.46 161.974 43.732C161.58 44.002 161.13 44.194 160.622 44.308V44.45C161.176 44.474 161.696 44.63 162.176 44.918C162.664 45.208 163.06 45.614 163.364 46.132ZM155.672 43.542H157.952C158.374 43.542 158.746 43.47 159.076 43.322C159.408 43.172 159.666 42.958 159.858 42.684C160.052 42.408 160.148 42.08 160.148 41.698C160.148 41.172 159.962 40.748 159.59 40.426C159.218 40.104 158.696 39.942 158.012 39.942H155.676V43.542H155.672ZM160.644 47.674C160.644 47.272 160.546 46.918 160.352 46.61C160.158 46.302 159.882 46.062 159.52 45.886C159.166 45.71 158.742 45.624 158.25 45.624H155.672V49.488H158.18C159.036 49.488 159.66 49.324 160.056 48.998C160.446 48.664 160.644 48.224 160.644 47.674ZM165.762 52H168.79V37.456H165.762V52ZM171.21 52H174.236V41.092H171.21V52Z" fill="black" fill-opacity="0.8"/>
<path d="M65.598 52V37.456H67.722V42.86H67.85C67.974 42.634 68.15 42.37 68.382 42.07C68.614 41.774 68.936 41.512 69.348 41.288C69.76 41.062 70.306 40.948 70.982 40.948C71.862 40.948 72.648 41.17 73.34 41.616C74.032 42.062 74.574 42.702 74.966 43.54C75.364 44.378 75.562 45.388 75.562 46.566C75.562 47.746 75.366 48.756 74.972 49.6C74.58 50.438 74.04 51.084 73.352 51.54C72.666 51.99 71.882 52.214 71.002 52.214C70.338 52.214 69.796 52.102 69.376 51.88C68.96 51.658 68.632 51.398 68.396 51.098C68.158 50.8 67.978 50.536 67.85 50.304H67.672V52H65.598ZM67.678 46.544C67.678 47.312 67.79 47.984 68.012 48.562C68.234 49.14 68.556 49.592 68.978 49.92C69.4 50.24 69.916 50.402 70.526 50.402C71.16 50.402 71.69 50.234 72.116 49.898C72.542 49.556 72.864 49.096 73.082 48.514C73.304 47.93 73.416 47.276 73.416 46.546C73.416 45.828 73.306 45.18 73.088 44.608C72.876 44.034 72.552 43.582 72.122 43.25C71.696 42.918 71.164 42.752 70.524 42.752C69.908 42.752 69.388 42.912 68.962 43.228C68.54 43.546 68.22 43.988 68.004 44.556C67.788 45.124 67.678 45.788 67.678 46.544ZM78.918 56.092C78.6 56.092 78.312 56.064 78.052 56.014C77.792 55.966 77.598 55.914 77.47 55.858L77.98 54.118C78.368 54.222 78.714 54.266 79.018 54.252C79.322 54.236 79.59 54.124 79.82 53.91C80.056 53.698 80.266 53.35 80.446 52.868L80.708 52.144L76.716 41.094H78.988L81.75 49.558H81.864L84.626 41.094H86.906L82.41 53.458C82.202 54.026 81.936 54.506 81.614 54.902C81.292 55.298 80.908 55.598 80.464 55.796C80.022 55.992 79.506 56.092 78.918 56.092Z" fill="black" fill-opacity="0.6"/>
<path d="M18.6444 28.2512C18.6511 28.2338 18.6378 28.2165 18.62 28.2165H11.1356C11.1111 28.2165 11.1 28.1862 11.1156 28.171L24.8467 13.3553C24.8667 13.3315 24.9022 13.3532 24.8933 13.3813L21.22 23.5777C21.2133 23.595 21.2267 23.6145 21.2467 23.6145H28.7311C28.7556 23.6145 28.7667 23.6448 28.7511 23.66L15.0178 38.4778C14.9978 38.4995 14.9622 38.4778 14.9711 38.4497L18.6444 28.2512ZM38.5311 9.9515L29.7911 1.43217C28.8533 0.517833 27.5822 0 26.26 0H5C2.24 0.0108333 0 2.19267 0 4.88367V47.1272C0 49.816 2.24 52 5 52H35C37.76 52 40 49.816 40 47.1272V13.4073C40 12.1138 39.4689 10.8658 38.5311 9.9515ZM35.5556 46.0438C35.5556 46.9365 34.8067 47.6667 33.8889 47.6667H6.11111C5.19333 47.6667 4.44444 46.9365 4.44444 46.0438V5.95617C4.44444 5.0635 5.19333 4.33333 6.11111 4.33333H23.3333H26.36L26.6667 4.381C26.9578 4.45033 27.22 4.5955 27.4378 4.80567L35.0667 12.2547C35.2844 12.467 35.4311 12.7205 35.5022 13.0065L35.5533 13.2513V16.2565L35.5556 46.0438Z" fill="black"/>
</svg>
