<svg width="189" height="34" viewBox="0 0 189 34" fill="none" xmlns="http://www.w3.org/2000/svg">
<path d="M3.71429 9.92593C3.71429 10.9897 2.88282 11.8519 1.85714 11.8519C0.831462 11.8519 0 10.9897 0 9.92593C0 8.8622 0.831462 8 1.85714 8C2.88282 8 3.71429 8.8622 3.71429 9.92593Z" fill="#131313"/>
<path fill-rule="evenodd" clip-rule="evenodd" d="M0 17.0444C0 15.7724 1.04432 14.7407 2.33254 14.7407H23.6675C24.9557 14.7407 26 15.7724 26 17.0444V31.6964C26 32.9684 24.9557 34 23.6675 34H2.33254C1.04432 34 0 32.9684 0 31.6964V17.0444ZM3.33221 30.1481L6.88663 25.8148L3.33221 21.4815H6.5L10.2143 25.8148L6.5 30.1481H3.33221ZM20.4286 28.2222H12.0714V30.1481H20.4286V28.2222Z" fill="#131313"/>
<path d="M7.42857 11.8519C8.45425 11.8519 9.28571 10.9897 9.28571 9.92593C9.28571 8.8622 8.45425 8 7.42857 8C6.40289 8 5.57143 8.8622 5.57143 9.92593C5.57143 10.9897 6.40289 11.8519 7.42857 11.8519Z" fill="#131313"/>
<path d="M14.6087 8C13.7202 8 13 8.86227 13 9.92593C13 10.9896 13.7202 11.8519 14.6087 11.8519H24.3913C25.2798 11.8519 26 10.9896 26 9.92593C26 8.86227 25.2798 8 24.3913 8H14.6087Z" fill="#131313"/>
<path d="M42.7754 11.9048C44.2654 11.9048 45.3154 11.1048 45.3154 9.79484C45.3154 8.36484 44.1354 7.99484 43.0254 7.64484C41.9654 7.32484 41.6954 7.09484 41.6954 6.66484C41.6954 6.26484 42.0354 5.96484 42.6154 5.96484C43.3254 5.96484 43.7054 6.33484 43.9554 6.86484L45.1154 6.19484C44.6454 5.21484 43.7654 4.62484 42.6154 4.62484C41.4154 4.62484 40.3154 5.38484 40.3154 6.70484C40.3154 8.03484 41.3554 8.48484 42.4254 8.79484C43.4654 9.09484 43.9354 9.29484 43.9354 9.81484C43.9354 10.2048 43.6454 10.5548 42.8154 10.5548C41.9454 10.5548 41.4554 10.1348 41.2054 9.48484L40.0254 10.1748C40.4054 11.2148 41.3454 11.9048 42.7754 11.9048Z" fill="#5F5F5F"/>
<path d="M48.869 8.00484V6.76484H47.739V5.36484L46.449 5.75484V6.76484H45.579V8.00484H46.449V10.0848C46.449 11.4348 47.059 11.9648 48.869 11.7648V10.5948C48.129 10.6348 47.739 10.6248 47.739 10.0848V8.00484H48.869Z" fill="#5F5F5F"/>
<path d="M53.4223 6.76484V7.35484C53.0623 6.90484 52.5223 6.62484 51.7923 6.62484C50.4623 6.62484 49.3623 7.77484 49.3623 9.26484C49.3623 10.7548 50.4623 11.9048 51.7923 11.9048C52.5223 11.9048 53.0623 11.6248 53.4223 11.1748V11.7648H54.7123V6.76484H53.4223ZM52.0323 10.6748C51.2423 10.6748 50.6523 10.1048 50.6523 9.26484C50.6523 8.42484 51.2423 7.85484 52.0323 7.85484C52.8323 7.85484 53.4223 8.42484 53.4223 9.26484C53.4223 10.1048 52.8323 10.6748 52.0323 10.6748Z" fill="#5F5F5F"/>
<path d="M58.262 11.9048C59.242 11.9048 60.092 11.3848 60.522 10.6048L59.402 9.96484C59.202 10.3748 58.772 10.6248 58.252 10.6248C57.482 10.6248 56.912 10.0548 56.912 9.26484C56.912 8.46484 57.482 7.89484 58.252 7.89484C58.762 7.89484 59.192 8.15484 59.392 8.56484L60.502 7.91484C60.092 7.14484 59.242 6.62484 58.262 6.62484C56.742 6.62484 55.622 7.77484 55.622 9.26484C55.622 10.7548 56.742 11.9048 58.262 11.9048Z" fill="#5F5F5F"/>
<path d="M65.8143 11.7648L63.7443 9.23484L65.7543 6.76484H64.2143L62.4943 8.96484V4.76484H61.2043V11.7648H62.4943V9.49484L64.3143 11.7648H65.8143Z" fill="#5F5F5F"/>
<path d="M70.7482 8.13484C71.1582 7.80484 71.4082 7.33484 71.4082 6.73484C71.4082 5.56484 70.4582 4.76484 69.2782 4.76484H66.5182V11.7648H69.4882C70.6982 11.7648 71.6682 10.9348 71.6682 9.73484C71.6682 9.00484 71.3082 8.45484 70.7482 8.13484ZM69.2782 6.05484C69.7182 6.05484 70.0282 6.38484 70.0282 6.82484C70.0282 7.26484 69.7082 7.59484 69.2782 7.59484H67.8982V6.05484H69.2782ZM69.4882 10.4748H67.8982V8.82484H69.4882C69.9582 8.82484 70.2982 9.17484 70.2982 9.64484C70.2982 10.1248 69.9582 10.4748 69.4882 10.4748Z" fill="#5F5F5F"/>
<path d="M72.5129 11.7648H73.8029V4.46484H72.5129V11.7648Z" fill="#5F5F5F"/>
<path d="M75.6236 6.16484C76.0636 6.16484 76.4236 5.80484 76.4236 5.37484C76.4236 4.94484 76.0636 4.57484 75.6236 4.57484C75.1936 4.57484 74.8336 4.94484 74.8336 5.37484C74.8336 5.80484 75.1936 6.16484 75.6236 6.16484ZM74.9836 11.7648H76.2736V6.76484H74.9836V11.7648Z" fill="#5F5F5F"/>
<path d="M80.3143 8.00484V6.76484H79.1843V5.36484L77.8943 5.75484V6.76484H77.0243V8.00484H77.8943V10.0848C77.8943 11.4348 78.5043 11.9648 80.3143 11.7648V10.5948C79.5743 10.6348 79.1843 10.6248 79.1843 10.0848V8.00484H80.3143Z" fill="#5F5F5F"/>
<path d="M82.7645 10.5548L84.8845 7.62484V6.76484H81.1345V7.97484H83.1445L81.0345 10.9048V11.7648H84.9845V10.5548H82.7645Z" fill="#5F5F5F"/>
<path d="M44.3743 32.9983H48.2958L50.7522 24.0995L53.2085 32.9983H57.13L61.2885 17.9156H57.6687L55.0615 28.4735L52.1527 17.9156H49.3516L46.4428 28.4735L43.8357 17.9156H40.2158L44.3743 32.9983Z" fill="#131313"/>
<path d="M63.6474 28.9044H71.2965C71.3827 28.495 71.4258 28.0641 71.4258 27.6116C71.4258 24.358 69.0987 21.9233 65.9529 21.9233C62.5485 21.9233 60.2215 24.4011 60.2215 27.6116C60.2215 30.8221 62.5054 33.2999 66.1899 33.2999C68.2368 33.2999 69.8313 32.5458 70.8871 31.0806L68.3015 29.5939C67.8705 30.0679 67.1164 30.4127 66.233 30.4127C65.0479 30.4127 64.0568 30.0248 63.6474 28.9044ZM63.5827 26.4912C63.8844 25.3923 64.7032 24.789 65.9313 24.789C66.9009 24.789 67.8705 25.2414 68.2153 26.4912H63.5827Z" fill="#131313"/>
<path d="M79.055 21.9233C77.6114 21.9233 76.5556 22.4188 75.8445 23.2376V17.9156H72.6125V32.9983H75.8445V31.9856C76.5556 32.8044 77.6114 33.2999 79.055 33.2999C81.8776 33.2999 84.2047 30.8221 84.2047 27.6116C84.2047 24.4011 81.8776 21.9233 79.055 21.9233ZM78.4086 30.2403C76.9219 30.2403 75.8445 29.2276 75.8445 27.6116C75.8445 25.9956 76.9219 24.9829 78.4086 24.9829C79.8953 24.9829 80.9726 25.9956 80.9726 27.6116C80.9726 29.2276 79.8953 30.2403 78.4086 30.2403Z" fill="#131313"/>
<path d="M92.6951 33.2999C95.4531 33.2999 97.8663 31.9425 99.1591 29.8094L96.1857 28.0856C95.5393 29.2491 94.2249 29.9386 92.6951 29.9386C90.0233 29.9386 88.2995 28.1503 88.2995 25.4569C88.2995 22.7636 90.0233 20.9752 92.6951 20.9752C94.2249 20.9752 95.5177 21.6647 96.1857 22.8282L99.1591 21.1045C97.8447 18.9713 95.4315 17.6139 92.6951 17.6139C88.1487 17.6139 84.8521 21.0183 84.8521 25.4569C84.8521 29.8955 88.1487 33.2999 92.6951 33.2999Z" fill="#131313"/>
<path d="M105.297 33.2999C108.464 33.2999 111.007 30.8221 111.007 27.6116C111.007 24.4011 108.464 21.9233 105.297 21.9233C102.13 21.9233 99.5872 24.4011 99.5872 27.6116C99.5872 30.8221 102.13 33.2999 105.297 33.2999ZM105.297 30.1541C103.897 30.1541 102.819 29.1414 102.819 27.6116C102.819 26.0818 103.897 25.0691 105.297 25.0691C106.698 25.0691 107.775 26.0818 107.775 27.6116C107.775 29.1414 106.698 30.1541 105.297 30.1541Z" fill="#131313"/>
<path d="M118.502 21.9233C117.08 21.9233 116.002 22.4404 115.421 23.2376V22.2249H112.189V32.9983H115.421V27.116C115.421 25.5862 116.239 24.8967 117.424 24.8967C118.459 24.8967 119.299 25.5216 119.299 26.8575V32.9983H122.531V26.3834C122.531 23.4746 120.678 21.9233 118.502 21.9233Z" fill="#131313"/>
<path d="M130.417 25.3276V22.2249H128.198V19.2084L124.966 20.178V22.2249H123.242V25.3276H124.966V29.1414C124.966 32.158 126.194 33.4292 130.417 32.9983V30.0679C128.995 30.1541 128.198 30.0679 128.198 29.1414V25.3276H130.417Z" fill="#131313"/>
<path d="M139.212 22.2249V23.2376C138.501 22.4188 137.445 21.9233 136.001 21.9233C133.179 21.9233 130.852 24.4011 130.852 27.6116C130.852 30.8221 133.179 33.2999 136.001 33.2999C137.445 33.2999 138.501 32.8044 139.212 31.9856V32.9983H142.444V22.2249H139.212ZM136.648 30.2403C135.161 30.2403 134.084 29.2276 134.084 27.6116C134.084 25.9956 135.161 24.9829 136.648 24.9829C138.135 24.9829 139.212 25.9956 139.212 27.6116C139.212 29.2276 138.135 30.2403 136.648 30.2403Z" fill="#131313"/>
<path d="M145.785 21.2768C146.841 21.2768 147.724 20.3934 147.724 19.3376C147.724 18.2819 146.841 17.3984 145.785 17.3984C144.729 17.3984 143.846 18.2819 143.846 19.3376C143.846 20.3934 144.729 21.2768 145.785 21.2768ZM144.169 32.9983H147.401V22.2249H144.169V32.9983Z" fill="#131313"/>
<path d="M155.433 21.9233C154.011 21.9233 152.933 22.4404 152.351 23.2376V22.2249H149.119V32.9983H152.351V27.116C152.351 25.5862 153.17 24.8967 154.355 24.8967C155.39 24.8967 156.23 25.5216 156.23 26.8575V32.9983H159.462V26.3834C159.462 23.4746 157.609 21.9233 155.433 21.9233Z" fill="#131313"/>
<path d="M163.922 28.9044H171.571C171.657 28.495 171.701 28.0641 171.701 27.6116C171.701 24.358 169.374 21.9233 166.228 21.9233C162.823 21.9233 160.496 24.4011 160.496 27.6116C160.496 30.8221 162.78 33.2999 166.465 33.2999C168.512 33.2999 170.106 32.5458 171.162 31.0806L168.576 29.5939C168.145 30.0679 167.391 30.4127 166.508 30.4127C165.323 30.4127 164.332 30.0248 163.922 28.9044ZM163.858 26.4912C164.159 25.3923 164.978 24.789 166.206 24.789C167.176 24.789 168.145 25.2414 168.49 26.4912H163.858Z" fill="#131313"/>
<path d="M176.119 24.1426V22.2249H172.887V32.9983H176.119V28.1287C176.119 25.9956 178.015 25.4569 179.351 25.6724V22.0094C177.994 22.0094 176.55 22.6989 176.119 24.1426Z" fill="#131313"/>
<path d="M182.96 25.3707C182.96 24.9829 183.304 24.7674 183.865 24.7674C184.576 24.7674 185.007 25.1553 185.308 25.7155L188.066 24.2288C187.161 22.6989 185.61 21.9233 183.865 21.9233C181.624 21.9233 179.642 23.1083 179.642 25.4569C179.642 29.1845 184.942 28.5596 184.942 29.7447C184.942 30.1757 184.554 30.4127 183.779 30.4127C182.83 30.4127 182.227 29.9602 181.947 29.1414L179.146 30.7359C179.986 32.4812 181.624 33.2999 183.779 33.2999C186.106 33.2999 188.26 32.2441 188.26 29.7663C188.26 25.7801 182.96 26.5989 182.96 25.3707Z" fill="#131313"/>
</svg>
