<svg width="314" height="229" viewBox="0 0 314 229" fill="none" xmlns="http://www.w3.org/2000/svg">
<path d="M162.531 71.9974C166.532 60.0178 165.159 46.9057 158.768 35.9989C149.152 19.3109 129.8 10.7285 110.927 14.7217C102.505 5.3049 90.4403 -0.0591086 77.7782 0.000491437C58.4864 0.000491437 41.3447 12.3973 35.372 30.6945C22.9489 33.2573 12.2577 41.0053 5.98641 51.9718C-3.68935 68.6598 -1.47945 89.639 11.4813 103.943C7.47958 115.923 8.8533 129.035 15.2441 139.882C24.8601 156.629 44.2116 165.212 63.1451 161.219C71.5068 170.635 83.5717 176.059 96.2338 176C115.526 176 132.667 163.603 138.64 145.305C151.063 142.743 161.754 134.995 167.966 124.028C177.701 107.34 175.491 86.361 162.531 72.057V71.9974ZM148.793 41.7801C152.616 48.4554 154.049 56.263 152.735 63.8322C152.497 63.6534 152.019 63.415 151.72 63.2362L116.601 42.9721C114.809 41.9589 112.599 41.9589 110.807 42.9721L69.6553 66.693V49.2898L103.64 29.6813C119.468 20.5625 139.655 25.9861 148.793 41.7801ZM69.6553 77.9574L86.9761 67.9446L104.297 77.9574V97.9234L86.9761 107.936L69.6553 97.9234V77.9574ZM77.7184 11.5033C85.4829 11.5033 92.9488 14.1853 98.9215 19.1321C98.6826 19.2513 98.2047 19.5493 97.8464 19.7281L62.727 39.9325C60.9352 40.9457 59.8601 42.8529 59.8601 44.9389V92.3806L44.7492 83.679V44.4621C44.7492 26.2245 59.5017 11.5033 77.7782 11.4437L77.7184 11.5033ZM16.0205 57.753C19.9028 51.0777 25.9352 45.9521 33.2219 43.2701V84.9306C33.2219 87.0166 34.297 88.8642 36.0888 89.937L77.1809 113.598L62.0103 122.359L28.0854 102.811C12.3175 93.6918 6.88231 73.547 16.0205 57.753ZM25.2782 134.22C21.396 127.604 20.0222 119.737 21.3362 112.168C21.5751 112.347 22.0529 112.585 22.3516 112.764L57.471 133.028C59.2628 134.041 61.4727 134.041 63.2645 133.028L104.357 109.307V126.71L70.372 146.259C54.5444 155.318 34.3567 149.954 25.2185 134.22H25.2782ZM96.2935 164.497C88.5887 164.497 81.0631 161.815 75.1502 156.868C75.3891 156.749 75.9266 156.451 76.2253 156.272L111.345 136.067C113.136 135.054 114.271 133.147 114.212 131.061V83.679L129.322 92.3806V131.538C129.322 149.775 114.51 164.556 96.2935 164.556V164.497ZM158.051 118.247C154.169 124.922 148.077 130.048 140.85 132.67V91.0098C140.85 88.9238 139.775 87.0166 137.983 86.0034L96.831 62.2826L111.942 53.581L145.927 73.1298C161.754 82.2486 167.13 102.393 157.991 118.187L158.051 118.247Z" fill="url(#paint0_linear_464_33)"/>
<path d="M306.044 133.549L298.091 141.502L306.044 149.455L313.997 141.502L306.044 133.549Z" fill="white"/>
<path d="M282.182 157.411L290.138 165.366L298.093 157.411L290.138 149.456L282.182 157.411Z" fill="white"/>
<path d="M266.266 173.323L274.222 181.276L282.173 173.322L274.218 165.369L266.266 173.323Z" fill="white"/>
<path d="M250.372 189.228L258.325 197.183L266.28 189.23L258.327 181.275L250.372 189.228Z" fill="white"/>
<path d="M234.45 205.138L242.406 213.091L250.359 205.136L242.403 197.183L234.45 205.138Z" fill="white"/>
<path d="M218.545 221.047L226.5 229.002L234.455 221.047L226.5 213.091L218.545 221.047Z" fill="white"/>
<path d="M290.137 133.543L298.091 125.586L290.136 117.633L282.181 125.59L290.137 133.543Z" fill="white"/>
<path d="M282.171 141.5L274.218 133.547L266.264 141.501L274.217 149.454L282.171 141.5Z" fill="white"/>
<path d="M250.364 157.397L258.318 165.354L266.276 157.4L258.321 149.443L250.364 157.397Z" fill="white"/>
<path d="M250.371 173.317L242.416 165.364L234.463 173.319L242.418 181.272L250.371 173.317Z" fill="white"/>
<path d="M226.502 197.183L234.459 189.226L226.505 181.272L218.548 189.229L226.502 197.183Z" fill="white"/>
<path d="M210.591 197.188L202.636 205.141L210.589 213.096L218.544 205.143L210.591 197.188Z" fill="white"/>
<path d="M274.226 117.63L282.18 109.676L274.226 101.721L266.272 109.676L274.226 117.63Z" fill="white"/>
<path d="M258.32 117.644L250.366 125.598L258.32 133.552L266.274 125.598L258.32 117.644Z" fill="white"/>
<path d="M258.321 101.734L266.277 93.7787L258.323 85.8246L250.367 93.78L258.321 101.734Z" fill="white"/>
<path d="M242.409 101.72L234.454 109.676L242.409 117.631L250.364 109.676L242.409 101.72Z" fill="white"/>
<path d="M218.546 141.5L178.774 101.726L139 141.5L178.774 181.272L218.546 141.5ZM178.776 165.363L154.911 141.5L178.774 117.637L202.637 141.5L178.776 165.363Z" fill="white"/>
<path d="M242.406 85.8173L250.364 77.8618L242.409 69.9039L234.451 77.8595L242.406 85.8173Z" fill="white"/>
<path d="M226.496 85.8156L218.543 93.7709L226.498 101.724L234.451 93.7686L226.496 85.8156Z" fill="white"/>
<path d="M234.452 61.9571L226.497 54.0017L218.542 61.9559L226.498 69.9113L234.452 61.9571Z" fill="white"/>
<path d="M218.546 77.863L210.591 69.9077L202.637 77.8618L210.592 85.8173L218.546 77.863Z" fill="white"/>
<defs>
<linearGradient id="paint0_linear_464_33" x1="10" y1="12.5" x2="137.5" y2="176" gradientUnits="userSpaceOnUse">
<stop stop-color="#851B44"/>
<stop offset="1" stop-color="#4B1431"/>
</linearGradient>
</defs>
</svg>
