<svg xmlns="http://www.w3.org/2000/svg" viewBox="0 0 576 512">
<!--! Font Awesome Pro 6.2.0 by @fontawesome - https://fontawesome.com License - https://fontawesome.com/license (Commercial License) Copyright 2022 Fonticons, Inc.-->
  <path d="M96 153v-41c0-26 22-48 48-48h64a16 16 0 0 0 0-32h-64c-44 0-80 36-80 80v40c0 38-21 73-55 90-6 2-9 8-9 14s3 12 9 14c34 17 55 52 55 90v40c0 44 36 80 80 80h64c9 0 16-7 16-16s-7-16-16-16h-64c-26 0-48-21-48-48v-40c0-41-19-79-50-104 31-25 50-63 50-103zm471 89a99 99 0 0 1-55-89v-41c0-44-36-80-80-80h-64a16 16 0 0 0 0 32h64c27 0 48 22 48 48v40c0 41 19 79 50 104-31 25-50 63-50 104v40c0 26-22 48-48 48h-64a16 16 0 0 0 0 32h64c44 0 80-36 80-80v-40c0-38 21-73 55-90 6-2 9-8 9-14s-3-12-9-14z"/>
</svg>
