<svg xmlns="http://www.w3.org/2000/svg" viewBox="0 0 512 512">
<!--! Font Awesome Pro 6.2.0 by @fontawesome - https://fontawesome.com License - https://fontawesome.com/license (Commercial License) Copyright 2022 Fonticons, Inc.-->
  <path d="M260.7 404.7a15.99 15.99 0 1 0 22.61 22.61l96-96a15.99 15.99 0 0 0 0-22.62l-96-96a15.99 15.99 0 1 0-22.62 22.62L329.4 304H16c-8.84 0-16 7.2-16 16s7.16 16 16 16h313.4l-68.7 68.7zm232.6-279.4L386.8 18.8A64.05 64.05 0 0 0 341.5 0H192c-35.3 0-64 28.65-64 64v176c0 8.8 7.2 16 16 16s16-7.2 16-16V64a32 32 0 0 1 32-32h128v112c0 26.5 21.5 48 48 48h112v256a32 32 0 0 1-32 32H192a32 32 0 0 1-32-32v-48c0-8.8-7.2-16-16-16s-16 7.2-16 16v48a64 64 0 0 0 64 64h256a64 64 0 0 0 64-64V170.5c0-17-6.7-33.2-18.7-45.2zM368 160c-8.8 0-16-7.2-16-16V34.08c4.48 1.57 8.67 3.85 12.12 7.3l106.5 106.5A30 30 0 0 1 477.9 160H368z"/>
</svg>
