<svg xmlns="http://www.w3.org/2000/svg" viewBox="0 0 512 512"><!--! Font Awesome Pro 6.3.0 by @fontawesome - https://fontawesome.com License - https://fontawesome.com/license (Commercial License) Copyright 2023 Fonticons, Inc. --><path d="M48 224c0-97.2 78.8-176 176-176h32c59.4 0 110.4 36 132.4 87.4c2.7 6.3 5.5 13.1 8.4 20.2l0 0 0 0c5.5 13.5 11.4 28 17.7 41.2c10 20.9 22.5 42.1 40.5 60.2l4.4 4.4c2.9 2.9 4.6 6.9 4.6 11c0 8.6-7 15.6-15.6 15.6H424c-13.3 0-24 10.7-24 24v72c0 8.8-7.2 16-16 16H296c-13.3 0-24 10.7-24 24v64c0 13.3 10.7 24 24 24s24-10.7 24-24V448h64c35.3 0 64-28.7 64-64V336h.4c35.1 0 63.6-28.5 63.6-63.6c0-16.9-6.7-33-18.6-45L489 223c-12.7-12.7-22.4-28.5-31.2-46.9c-5.8-12.1-10.6-24-15.7-36.5l0 0c-3-7.4-6.1-15.1-9.6-23.1C403.3 48 335.3 0 256 0H224C100.3 0 0 100.3 0 224c0 53.6 18.9 102.9 50.3 141.5c8.9 11 13.7 22.4 13.7 33.1V488c0 13.3 10.7 24 24 24s24-10.7 24-24V398.6c0-24.9-10.9-46.8-24.5-63.4C62.8 304.8 48 266.2 48 224zm264-32c22.1 0 40-17.9 40-40s-17.9-40-40-40c-2 0-3.9 .1-5.8 .4C299.8 102.5 288.7 96 276 96c-6.2 0-12.1 1.6-17.2 4.3C252 88.2 238.9 80 224 80s-28 8.2-34.8 20.3C184.1 97.6 178.2 96 172 96c-18.5 0-33.8 14-35.8 32l-.2 0c-22.1 0-40 17.9-40 40c0 16.5 9.9 30.6 24.1 36.7c-.1 1.1-.1 2.2-.1 3.3c0 22.1 17.9 40 40 40c5.7 0 11.1-1.2 16-3.3V296c0 13.3 10.7 24 24 24s24-10.7 24-24V247.2c2.6 .5 5.3 .8 8 .8c22.1 0 40-17.9 40-40c0-5.7-1.2-11.1-3.3-16H312z"/></svg>