<svg xmlns="http://www.w3.org/2000/svg" viewBox="0 0 640 512">
<!--! Font Awesome Pro 6.2.0 by @fontawesome - https://fontawesome.com License - https://fontawesome.com/license (Commercial License) Copyright 2022 Fonticons, Inc.-->
  <path d="M173 131.4c49.1-49.88 130.9-49.88 180.8 0 47.5 47.5 49.3 123.5 6.2 174.2l-5.3 6.1a16 16 0 0 1-22.6 1.6c-6.6-5.7-7.4-15.8-1.6-22.5l5.4-6.2c32.9-38 30.9-95-4.7-130.5a95.66 95.66 0 0 0-135.5 0L71.1 278.6a96.03 96.03 0 0 0 135.8 135.8l22.6-22.6c6.2-6.3 16.4-6.3 22.6 0 6.3 6.2 6.3 16.3 0 22.6L229.5 437c-50 50-131.04 50-181.03 0-49.99-50-49.99-131.9 0-181L173 131.4zm293.1 249.2c-49.1 49.9-130 49.9-179.9 0-47.5-47.5-50.2-123.5-7.1-174.2l6.2-6.1a16 16 0 0 1 22.6-1.6c6.6 5.7 7.4 15.8 1.6 22.5l-5.4 6.2c-32.9 38-30.9 95 4.7 130.5a95.66 95.66 0 0 0 135.5 0l124.6-124.5c37.5-37.5 37.5-98.3 0-135.79-37.5-37.49-98.3-37.49-135.8 0l-22.6 22.59c-6.2 6.3-16.4 6.3-22.6 0-6.3-7.1-6.3-16.3 0-22.59l22.6-22.63c50-49.99 131-49.99 181 0 50 49.12 50 131.02 0 180.12L466.1 380.6z"/>
</svg>
