<svg xmlns="http://www.w3.org/2000/svg" viewBox="0 0 448 512">
<!--! Font Awesome Pro 6.2.0 by @fontawesome - https://fontawesome.com License - https://fontawesome.com/license (Commercial License) Copyright 2022 Fonticons, Inc.-->
  <path d="M272 64a16 16 0 0 1 0-32h160a16 16 0 0 1 16 16v160a16 16 0 0 1-16 16 16 16 0 0 1-16-16V86.6L187.3 315.3a15.9 15.9 0 0 1-22.6 0 15.9 15.9 0 0 1 0-22.6L393.4 64H272zM0 112a48 48 0 0 1 48-48h128a16 16 0 0 1 0 32H48a16 16 0 0 0-16 16v320a16 16 0 0 0 16 16h320a16 16 0 0 0 16-16V304a16 16 0 0 1 16-16 16 16 0 0 1 16 16v128a48 48 0 0 1-48 48H48a48 48 0 0 1-48-48V112z"/>
</svg>
