<svg xmlns="http://www.w3.org/2000/svg" viewBox="0 0 512 512">
<!--! Font Awesome Pro 6.2.0 by @fontawesome - https://fontawesome.com License - https://fontawesome.com/license (Commercial License) Copyright 2022 Fonticons, Inc.-->
  <path d="M459.3 436.7c6.3 6.2 6.3 16.4 0 22.6-6.2 6.3-16.4 6.3-22.6 0l-11.3-12.2A251.86 251.86 0 0 1 256 512c-64.9 0-124.2-24.2-169.35-64.9l-11.34 12.2a15.9 15.9 0 0 1-22.62 0 15.96 15.96 0 0 1 0-22.6l11.33-11.3A255.36 255.36 0 0 1 0 256c0-64.9 24.18-124.2 64.02-169.35L52.69 75.31a15.99 15.99 0 1 1 22.62-22.62l11.34 11.33A255.14 255.14 0 0 1 256 0c64.9 0 124.2 24.18 169.4 64.02l11.3-11.33a15.96 15.96 0 0 1 22.6 0 15.9 15.9 0 0 1 0 22.62l-12.2 11.34A251.64 251.64 0 0 1 512 256c0 64.9-24.2 124.2-64.9 169.4l12.2 11.3zM311.6 334.3A96.08 96.08 0 0 1 256 352c-20.7 0-39.9-6.6-55.6-17.7l-91.1 91C148.6 459.4 199.9 480 256 480c56.1 0 107.4-20.6 146.7-54.7l-91.1-91zM480 256c0-56.1-20.6-107.4-54.7-146.7l-91 91.1A96.08 96.08 0 0 1 352 256c0 20.7-6.6 39.9-17.7 55.6l91 91.1C459.4 363.4 480 312.1 480 256zM256 32c-56.1 0-107.4 20.62-146.7 54.7l91.1 91c15.7-11.1 34.9-18.6 55.6-18.6 20.7 0 39.9 7.5 55.6 18.6l91.1-91A223.17 223.17 0 0 0 256 32zm-78.3 279.6A96.08 96.08 0 0 1 160 256c0-20.7 6.6-39.9 17.7-55.6l-91-91.1A223.17 223.17 0 0 0 32 256c0 56.1 20.62 107.4 54.7 146.7l91-91.1zM256 192c-35.3 0-64 28.7-64 64s28.7 64 64 64 64-28.7 64-64-28.7-64-64-64z"/>
</svg>
