<svg xmlns="http://www.w3.org/2000/svg" viewBox="0 0 640 512">
<!--! Font Awesome Pro 6.2.0 by @fontawesome - https://fontawesome.com License - https://fontawesome.com/license (Commercial License) Copyright 2022 Fonticons, Inc.-->
  <path d="M319.9 320c57.41 0 103.1-46.56 103.1-104s-46.54-104-103.1-104c-57.41 0-103.1 46.56-103.1 104-.9 57.4 45.7 104 103.1 104zm0-176c39.68 0 71.96 32.3 71.96 72s-32.36 72-71.96 72-72-32.3-72-72 32.3-72 72-72zm50 208h-99.8C191.6 352 128 411.7 128 485.3c0 14.8 12.7 26.7 28.4 26.7h327.2c15.7 0 28.4-11.9 28.4-26.7 0-73.6-63.6-133.3-142.1-133.3zM160.2 480c3.02-53.41 51.19-96 109.1-96h100.6c58.78 0 106.9 42.59 109.1 96H160.2zM512 160a80 80 0 1 0 0-160 80 80 0 0 0 0 160zm0-128c26.47 0 48 21.53 48 48s-21.5 48-48 48-48-21.53-48-48 21.5-48 48-48zM128 160a80 80 0 1 0 0-160 80 80 0 0 0 0 160zm0-128c26.47 0 48 21.53 48 48s-21.5 48-48 48-48-21.5-48-48 21.5-48 48-48zm433.1 160H496a75.12 75.12 0 0 0-32.47 7.44 16 16 0 1 0 13.72 28.9A43.92 43.92 0 0 1 496 224h65.08c25.02 0 46.92 22.7 46.92 50.7V288a15.99 15.99 0 1 0 32 0v-13.3c0-45.6-35.4-82.7-78.9-82.7zm-398.3 36.3a16 16 0 1 0 13.72-28.9A75.84 75.84 0 0 0 144 192H78.92C35.41 192 0 229.1 0 274.7V288a15.99 15.99 0 1 0 32 0v-13.3c0-28 21.05-50.7 46.92-50.7H144c6.4 0 12.7 1.5 18.8 4.3z"/>
</svg>
