<svg width="90" height="30" viewBox="0 0 90 30" fill="none" xmlns="http://www.w3.org/2000/svg">
<mask id="mask0_3699_85" style="mask-type:luminance" maskUnits="userSpaceOnUse" x="0" y="0" width="90" height="30">
<path d="M89.5522 0H0V29.5945H89.5522V0Z" fill="white"/>
</mask>
<path d="M74.3615 18.0207C74.5035 17.6445 74.5536 17.2397 74.5075 16.8402C74.4614 16.4407 74.3208 16.058 74.0964 15.724C73.8663 15.448 73.5842 15.2202 73.2659 15.0534C72.9479 14.8867 72.5996 14.7844 72.2418 14.7523L56.8751 14.5756C56.7864 14.5756 56.6982 14.4873 56.61 14.4873C56.5894 14.4718 56.5729 14.4518 56.5612 14.4288C56.5496 14.4058 56.5438 14.3805 56.5438 14.3548C56.5438 14.329 56.5496 14.3037 56.5612 14.2807C56.5729 14.2577 56.5894 14.2377 56.61 14.2222C56.6982 14.0456 56.7864 13.9573 56.9633 13.9573L72.4187 13.7806C73.3997 13.6717 74.3342 13.3033 75.1258 12.7133C75.9175 12.1233 76.5376 11.333 76.9227 10.4237L77.8057 8.127C77.8057 8.03866 77.8939 7.95031 77.8057 7.86202C77.3257 5.72284 76.1606 3.79894 74.4873 2.38264C72.8141 0.966327 70.7248 0.135037 68.5361 0.0150852C66.3475 -0.104866 64.1794 0.493079 62.362 1.71806C60.5441 2.94304 59.1757 4.72809 58.4647 6.80194C57.5418 6.14266 56.4161 5.82985 55.2851 5.9186C54.2476 6.0343 53.28 6.49961 52.5421 7.23806C51.8038 7.97651 51.3385 8.94421 51.2226 9.98208C51.1639 10.5133 51.1939 11.0507 51.3112 11.5722C49.6321 11.6186 48.0376 12.3184 46.8663 13.5227C45.6954 14.727 45.0403 16.3408 45.0408 18.0207C45.026 18.3471 45.056 18.674 45.129 18.9925C45.133 19.0614 45.1621 19.1265 45.2109 19.1753C45.2597 19.2242 45.3251 19.2534 45.3941 19.2574H73.7432C73.92 19.2574 74.0964 19.1691 74.0964 18.9925L74.3615 18.0207Z" fill="black"/>
<path d="M79.2202 8.12695H78.7787C78.6905 8.12695 78.6018 8.2153 78.5136 8.30364L77.8953 10.4237C77.7533 10.8 77.7032 11.2047 77.7493 11.6042C77.7954 12.0038 77.9364 12.3865 78.1603 12.7205C78.3905 12.9964 78.6726 13.2243 78.9909 13.391C79.3093 13.5578 79.6572 13.6601 80.015 13.6922L83.2827 13.8689C83.3709 13.8689 83.4596 13.9572 83.5478 13.9572C83.5684 13.9726 83.585 13.9926 83.5966 14.0156C83.6078 14.0386 83.6141 14.064 83.6141 14.0897C83.6141 14.1154 83.6078 14.1408 83.5966 14.1638C83.585 14.1868 83.5684 14.2068 83.5478 14.2222C83.4596 14.3989 83.3709 14.4872 83.1945 14.4872L79.8385 14.6639C78.857 14.7728 77.9226 15.1412 77.1309 15.7312C76.3397 16.3212 75.7191 17.1114 75.3345 18.0207L75.1576 18.8157C75.0694 18.9041 75.1576 19.0807 75.3345 19.0807H86.992C87.0278 19.0859 87.0645 19.0826 87.099 19.071C87.1335 19.0596 87.1648 19.0402 87.1908 19.0145C87.2163 18.9887 87.236 18.9574 87.2472 18.9229C87.2588 18.8884 87.262 18.8517 87.257 18.8157C87.467 18.0673 87.5857 17.296 87.6103 16.5189C87.596 14.2976 86.7076 12.1712 85.1373 10.6004C83.567 9.0296 81.4411 8.14097 79.2202 8.12695Z" fill="black"/>
<path d="M88.7575 24.0277C88.6004 24.0277 88.4468 23.9811 88.316 23.8937C88.1853 23.8063 88.0832 23.6822 88.0232 23.5369C87.9627 23.3916 87.9471 23.2318 87.978 23.0776C88.0084 22.9233 88.0841 22.7817 88.1956 22.6705C88.3066 22.5593 88.4481 22.4836 88.6026 22.4529C88.7566 22.4222 88.9165 22.438 89.0615 22.4982C89.2071 22.5583 89.3311 22.6602 89.4184 22.7909C89.5057 22.9217 89.5523 23.0754 89.5523 23.2327C89.5527 23.3372 89.5326 23.4407 89.4927 23.5374C89.4529 23.6341 89.3942 23.7219 89.3203 23.7958C89.2465 23.8697 89.1587 23.9283 89.062 23.9681C88.9657 24.0079 88.8618 24.0281 88.7575 24.0277ZM88.7575 22.6143C88.6353 22.6143 88.5157 22.6506 88.4141 22.7185C88.3124 22.7865 88.2332 22.883 88.1862 22.996C88.1396 23.109 88.1271 23.2333 88.1512 23.3533C88.175 23.4732 88.2336 23.5834 88.3205 23.6699C88.4069 23.7564 88.5171 23.8153 88.6366 23.8391C88.7566 23.863 88.8811 23.8508 88.9939 23.804C89.1068 23.7571 89.2035 23.6779 89.2715 23.5762C89.3396 23.4745 89.3759 23.3549 89.3759 23.2327C89.3777 23.1509 89.3629 23.0696 89.3324 22.9937C89.3024 22.9178 89.2568 22.8488 89.199 22.7909C89.1412 22.7331 89.0723 22.6877 88.9962 22.6573C88.9205 22.6269 88.839 22.6123 88.7575 22.6143ZM89.1108 23.6743H88.9339L88.7575 23.4093H88.5806V23.6743H88.4042V22.8793H88.8457C88.8815 22.8741 88.9183 22.8775 88.9527 22.889C88.9872 22.9005 89.0186 22.9199 89.0445 22.9456C89.0701 22.9713 89.0898 23.0026 89.1009 23.0371C89.1126 23.0716 89.1157 23.1083 89.1108 23.1443C89.1108 23.2327 89.0226 23.321 88.9339 23.4093L89.1108 23.6743ZM88.8457 23.2327C88.9339 23.2327 88.9339 23.2327 88.9339 23.1443C88.9344 23.1326 88.9321 23.121 88.9277 23.1102C88.9236 23.0994 88.9169 23.0896 88.9089 23.0813C88.9004 23.073 88.8905 23.0665 88.8798 23.0622C88.869 23.0579 88.8574 23.0557 88.8457 23.056H88.5806V23.321H88.8457V23.2327ZM9.62647 22.4376H11.5694V27.7378H14.9254V29.4162H9.62647V22.4376ZM16.9567 25.8827C16.9567 25.3921 17.0563 24.9065 17.2494 24.4555C17.4426 24.0044 17.7252 23.5972 18.0803 23.2586C18.4353 22.92 18.8554 22.657 19.315 22.4855C19.7746 22.314 20.2643 22.2376 20.7543 22.2609C21.2397 22.2391 21.7245 22.3171 22.1786 22.4902C22.6326 22.6633 23.0463 22.9279 23.394 23.2674C23.7417 23.6069 24.0161 24.0142 24.2001 24.4641C24.384 24.914 24.4737 25.3968 24.4635 25.8827C24.4635 26.3734 24.3639 26.859 24.1708 27.3101C23.9777 27.7611 23.695 28.1683 23.34 28.5069C22.9849 28.8455 22.5649 29.1085 22.1053 29.28C21.6456 29.4515 21.156 29.5279 20.6659 29.5046C20.1824 29.519 19.7009 29.4358 19.2502 29.2599C18.7995 29.0841 18.3888 28.8193 18.0426 28.4813C17.6964 28.1433 17.4219 27.739 17.2353 27.2926C17.0487 26.8461 16.954 26.3666 16.9567 25.8827ZM22.5206 25.8827C22.5379 25.6379 22.5054 25.392 22.425 25.1601C22.3446 24.9281 22.2181 24.7148 22.053 24.5332C21.8879 24.3515 21.6877 24.2052 21.4645 24.1032C21.2412 24.0011 20.9997 23.9454 20.7543 23.9394C20.278 23.9626 19.829 24.1682 19.5002 24.5135C19.1714 24.8589 18.988 25.3175 18.988 25.7944C18.988 26.2714 19.1714 26.73 19.5002 27.0753C19.829 27.4207 20.278 27.6262 20.7543 27.6495C21.8141 27.8262 22.5206 26.9428 22.5206 25.8827ZM26.8481 26.3245V22.4376H28.791V26.3245C28.791 27.2961 29.3209 27.8262 30.1158 27.8262C30.3014 27.8416 30.4881 27.8149 30.6619 27.7479C30.8358 27.681 30.9923 27.5757 31.1197 27.4397C31.2471 27.3038 31.3421 27.1409 31.3977 26.963C31.4532 26.7852 31.4679 26.5971 31.4405 26.4128V22.4376H33.3834V26.3245C33.3834 28.6212 32.0587 29.5929 30.1158 29.5929C28.0845 29.5046 26.8481 28.5329 26.8481 26.3245ZM36.2979 22.4376H39.0357C41.5085 22.4376 43.0098 23.851 43.0098 25.8827C43.0098 27.9145 41.5085 29.4162 39.0357 29.4162H36.3862V22.4376H36.2979ZM39.0357 27.6495C39.2817 27.673 39.5301 27.6448 39.7646 27.5667C39.9992 27.4886 40.2149 27.3623 40.3978 27.196C40.5807 27.0296 40.7269 26.8269 40.8269 26.6007C40.9269 26.3746 40.9786 26.13 40.9786 25.8827C40.9786 25.6355 40.9269 25.3909 40.8269 25.1648C40.7269 24.9386 40.5807 24.7359 40.3978 24.5695C40.2149 24.4032 39.9992 24.2769 39.7646 24.1988C39.5301 24.1207 39.2817 24.0925 39.0357 24.116H38.2408V27.6495H39.0357ZM45.7478 22.4376H51.3117V24.116H47.6907V25.2644H50.9584V26.8545H47.6907V29.4162H45.7478V22.4376ZM54.0493 22.4376H55.9921V27.7378H59.3481V29.4162H54.0493V22.4376ZM64.3823 22.3493H66.3251L69.3278 29.4162H67.2086L66.6784 28.1795H63.9408L63.4107 29.4162H61.3796L64.3823 22.3493ZM66.1487 26.6778L65.3539 24.7344L64.5587 26.6778H66.1487ZM71.8008 22.4376H75.0686C75.4854 22.4038 75.905 22.457 76.2999 22.5938C76.6953 22.7307 77.058 22.9482 77.3647 23.2327C77.6177 23.5055 77.8012 23.8354 77.9002 24.1942C77.9987 24.5531 78.0095 24.9305 77.9315 25.2944C77.8536 25.6583 77.6893 25.9981 77.452 26.2851C77.2151 26.572 76.9124 26.7976 76.5699 26.9428L78.2477 29.4162H76.0398L74.6271 27.2961H73.7436V29.4162H71.8008V22.4376ZM74.9803 25.7944C75.5983 25.7944 76.0398 25.4411 76.0398 24.9994C76.0398 24.4694 75.5983 24.2044 74.9803 24.2044H73.7436V25.8827H74.9803V25.7944ZM80.7206 22.4376H86.3727V24.0277H82.6635V25.0877H86.0195V26.6778H82.6635V27.7378H86.4614V29.4162H80.7206V22.4376ZM5.38734 26.7661C5.25413 27.0783 5.0328 27.3449 4.75044 27.5331C4.46809 27.7214 4.13697 27.8232 3.79764 27.8262C3.32141 27.8029 2.87238 27.5973 2.54355 27.252C2.21473 26.9066 2.03132 26.448 2.03132 25.9711C2.03132 25.4942 2.21473 25.0356 2.54355 24.6902C2.87238 24.3449 3.32141 24.1393 3.79764 24.116C4.15881 24.123 4.51009 24.2354 4.80821 24.4394C5.10632 24.6434 5.33835 24.9302 5.47564 25.2644H7.50691C7.33313 24.4182 6.86513 23.661 6.18606 23.1273C5.50694 22.5936 4.66071 22.3179 3.79764 22.3493C3.30945 22.3334 2.82298 22.4149 2.36664 22.5891C1.91028 22.7633 1.49318 23.0267 1.13968 23.3638C0.786168 23.7009 0.503331 24.1051 0.307668 24.5528C0.112004 25.0004 0.00743319 25.4826 5.68805e-05 25.9711C-0.0026616 26.455 0.0920892 26.9344 0.278656 27.3809C0.465222 27.8274 0.739785 28.2317 1.08596 28.5697C1.43214 28.9077 1.84283 29.1725 2.29355 29.3483C2.74426 29.5241 3.22576 29.6073 3.70932 29.5929C4.55316 29.5986 5.37503 29.3242 6.04622 28.8127C6.71746 28.3011 7.2001 27.5814 7.41856 26.7661H5.38734Z" fill="black"/>
</svg>
