<svg width="119" height="30" viewBox="0 0 119 30" fill="none" xmlns="http://www.w3.org/2000/svg">
<path d="M14.4233 29.9858C8.42062 29.9938 3.47041 25.2283 3.17166 19.1569V19.135C2.07603 18.995 1.17666 18.1896 0.905616 17.1052C0.591032 15.8577 0.1652 13.994 0.114575 12.2029C0.0818665 11.1667 0.671866 10.2137 1.60707 9.79229C2.5252 9.375 3.83479 9.03354 5.48562 8.775C6.40916 6.61312 7.49895 4.73396 8.65166 3.31771C10.4471 1.11604 12.3892 0 14.4233 0C16.4575 0 18.3979 1.11604 20.1908 3.31854C21.3381 4.73479 22.4325 6.61167 23.3541 8.76875C24.9937 9.01937 26.3014 9.36271 27.245 9.78813C28.1796 10.2079 28.77 11.1592 28.7383 12.1944C28.6877 13.9952 28.2625 15.8596 27.9481 17.1046C27.6775 18.1908 26.7764 18.9979 25.6785 19.1367V19.1569C25.3714 25.2275 20.42 29.989 14.4181 29.9852L14.4233 29.9858Z" fill="white"/>
<path d="M14.4164 1.89746C19.6289 1.89746 23.855 13.2445 23.855 18.5245C23.855 23.8045 19.6297 28.0849 14.4153 28.0849C9.20281 28.0849 4.97656 23.8055 4.97656 18.5245C4.9776 13.2445 9.20385 1.89746 14.4164 1.89746Z" fill="#FCFBFA"/>
<path d="M26.3861 11.0547L22.5355 12.4303C22.5355 12.4303 23.1313 14.2657 23.1365 14.2789C23.1426 14.293 26.9734 13.7786 26.9734 13.7786L26.3861 11.0547ZM2.44871 11.0547L6.29954 12.4303C6.29954 12.4303 5.70454 14.2657 5.69829 14.2789C5.69308 14.293 1.86328 13.7786 1.86328 13.7786L2.44954 11.0549L2.44871 11.0547Z" fill="#252526"/>
<path d="M10.4543 10.7298C11.0548 10.7157 11.5731 11.1527 11.6679 11.7532C11.7898 12.4169 11.871 13.0882 11.9093 13.7632C11.9131 13.9521 11.896 14.1409 11.8587 14.3261C11.8141 13.873 11.7508 13.4219 11.6687 12.9744C11.5739 12.3738 11.0556 11.9367 10.4552 11.9509C9.00893 11.9659 7.56268 12.0769 6.13038 12.2844C6.26622 11.8573 6.41184 11.4286 6.56788 11.005C7.85684 10.835 9.15455 10.743 10.4543 10.7298ZM23.8379 18.1C20.4385 17.9225 17.5348 16.8207 16.8796 16.4271C16.3681 16.18 15.7164 15.655 15.5293 14.343C15.4037 15.7884 15.6731 17.1048 17.0131 17.755C17.1116 17.815 19.6764 19.1007 23.8156 19.3213C23.8487 18.915 23.8562 18.5071 23.8379 18.1ZM5.0058 18.1C8.40518 17.9225 11.3089 16.8207 11.9641 16.4271C12.4756 16.18 13.1273 15.655 13.3146 14.343C13.44 15.7884 13.1708 17.1048 11.8308 17.755C11.7323 17.815 9.16747 19.1007 5.0283 19.3213C4.99518 18.915 4.98747 18.5071 5.0058 18.1ZM18.3693 10.7298C17.7691 10.7157 17.2506 11.1527 17.1558 11.7532C17.0339 12.4169 16.9537 13.0882 16.9154 13.7632C16.9112 13.9521 16.9283 14.1409 16.9658 14.3261C17.0137 13.8398 17.08 13.3767 17.155 12.9744C17.2504 12.3742 17.7685 11.9373 18.3685 11.9509C19.8156 11.9659 21.2608 12.0769 22.6931 12.2844C22.5571 11.8546 22.4112 11.4282 22.2558 11.005C20.9673 10.8352 19.6696 10.7432 18.3702 10.7298H18.3693Z" fill="#E0E0E0"/>
<path d="M6.16102 9.69627C7.0881 7.4196 8.19977 5.44939 9.37581 3.99877C10.9779 2.03126 12.6733 1.03418 14.415 1.03418C16.1575 1.03418 17.8527 2.03126 19.4541 3.9971C20.6348 5.44606 21.7506 7.41627 22.6689 9.69543L22.7141 9.8121L22.5991 9.79522C22.2716 9.75127 22.006 9.7196 21.681 9.67877H21.64L21.6243 9.64168C20.5812 7.17606 18.8014 3.95647 16.5023 2.61168C15.8725 2.22356 15.1521 2.01147 14.4148 1.99772C13.6777 2.01168 12.9577 2.22356 12.3281 2.61168C10.0341 3.9546 8.25956 7.15939 7.20789 9.63793L7.19227 9.67522H7.15247C6.82497 9.71043 6.55831 9.74314 6.23331 9.79168L6.11914 9.80856L6.16102 9.69627ZM23.9468 16.9104C23.6906 16.9033 23.4327 16.8927 23.1783 16.8777H23.1L23.0895 16.7973C22.8595 14.985 22.3454 12.8621 21.631 10.8229L21.585 10.6704L21.74 10.6917C22.0318 10.7313 22.3141 10.7754 22.5893 10.8223L22.646 10.8311L22.6643 10.8858C23.3527 12.9223 23.8404 15.0231 24.0495 16.8019L24.0627 16.9186L23.9468 16.9104Z" fill="#56555C"/>
<path d="M23.1044 12.3171C22.9657 11.8369 22.8167 11.3596 22.6573 10.886L22.64 10.8312L22.5834 10.8214C22.3123 10.7746 22.0259 10.7306 21.734 10.6908L21.584 10.6689L21.6363 10.8189C21.794 11.2708 21.9421 11.726 22.0807 12.1831C22.5702 12.2404 22.8473 12.28 23.1044 12.3171Z" fill="#252526"/>
<path d="M4.85518 16.7604C5.06435 14.9815 5.55664 12.8806 6.24039 10.8444L6.25872 10.7896L6.31518 10.779C6.58622 10.7329 6.87268 10.6879 7.16456 10.6492L7.31977 10.6279L7.26747 10.7771C6.55477 12.8163 6.03727 14.9375 5.80997 16.7506L5.79956 16.8319H5.72122C5.46602 16.8469 5.20727 16.8575 4.95289 16.8636H4.83789L4.85518 16.7604Z" fill="#56555C"/>
<path d="M6.31596 10.7788L6.2593 10.7875L6.2418 10.8431C6.08263 11.3177 5.93367 11.7958 5.79492 12.2771C6.27409 12.2152 6.41263 12.2223 6.81346 12.179C6.95451 11.7142 7.10617 11.2402 7.27263 10.7763L7.32492 10.6279L7.16888 10.6492C6.88388 10.6883 6.59951 10.7315 6.31596 10.7788Z" fill="#252526"/>
<path d="M14.4164 28.9433C10.1885 28.9437 6.39039 26.3256 4.83997 22.3416C4.31914 20.9916 4.0783 19.5474 4.13247 18.0991V18.0339H4.19705C4.53247 18.0252 4.76143 18.0164 5.00018 18.0039H5.07518V18.0789C4.89039 22.0195 7.1383 25.6629 10.7166 27.2225C14.2948 28.7816 18.4527 27.9295 21.1507 25.0839C22.0057 24.1856 22.6751 23.1239 23.1196 21.9604C23.5936 20.7249 23.8053 19.4033 23.7436 18.0806V18.0047H23.8184C24.1521 18.0224 24.3821 18.0295 24.6217 18.0349H24.6861V18.1002C24.7453 19.5462 24.5103 20.9895 23.9953 22.3399C22.4484 26.327 18.6485 28.9481 14.4187 28.9452H14.4164V28.9433Z" fill="#56555C"/>
<path d="M5.10907 19.3214C5.07594 18.9067 5.06719 18.4894 5.08365 18.0729V17.9971H5.00886C4.76844 18.0102 4.53844 18.0189 4.20574 18.0279H4.14115V18.0923C4.12719 18.5106 4.13594 18.9289 4.16907 19.3454H4.19949C4.50949 19.3454 4.81282 19.3312 5.10115 19.3171L5.10907 19.3214ZM24.6954 18.0325H24.6311C24.3879 18.0325 24.1579 18.0192 23.8277 18.0023H23.7527V18.0773C23.7702 18.49 23.7615 18.9031 23.7292 19.3144L24.6702 19.3558C24.7034 18.9383 24.7119 18.521 24.6982 18.1027L24.6954 18.0325Z" fill="#252526"/>
<path d="M25.2252 18.2445C23.2575 18.2518 21.2973 17.9968 19.3952 17.4855C18.5762 17.2676 17.7791 16.9739 17.0133 16.6112L16.9949 16.5972C15.3877 15.8191 15.3283 14.2589 15.4783 12.8366C15.5158 12.4774 15.386 12.0018 15.0122 11.7495C14.6556 11.5085 14.191 11.5085 13.8343 11.7495C13.4597 11.9999 13.3299 12.4747 13.3672 12.8328C13.517 14.2562 13.4543 15.8162 11.8514 16.5945L11.8329 16.6033C11.0666 16.9705 10.2691 17.2668 9.45016 17.4883C7.54807 17.9993 5.58787 18.2545 3.61995 18.2472H3.6112C2.79474 18.2372 2.08724 17.6712 1.88871 16.8691C1.58371 15.6753 1.17683 13.8868 1.12975 12.2085C1.1085 11.5366 1.49079 10.9189 2.09682 10.6449C4.30974 9.65055 8.78953 9.27638 10.6999 9.30201C11.3664 9.2968 12.0066 9.56492 12.4754 10.0449C13.0866 9.75451 13.7518 9.59909 14.4268 9.58888C15.1018 9.59867 15.767 9.75346 16.3783 10.0433C16.8433 9.56638 17.4783 9.2993 18.1399 9.30201C19.2883 9.2843 24.2248 9.50055 26.7502 10.6389C27.3554 10.9103 27.7377 11.5262 27.7173 12.1962C27.6702 13.877 27.2581 15.6753 26.9627 16.8666C26.7641 17.6689 26.0568 18.2347 25.2404 18.2447L25.2252 18.2445ZM18.381 10.8026C17.8141 10.7899 17.3247 11.202 17.2337 11.7689C17.1118 12.4308 17.0316 13.0987 16.9924 13.7699C16.9837 14.5376 17.2556 15.0626 17.7956 15.3318C19.8202 16.246 22.1725 16.6976 24.9875 16.7118C25.2033 16.7105 25.3914 16.563 25.4466 16.3516C25.7139 15.2928 26.0748 13.7176 26.1164 12.2697C26.121 12.1312 26.0416 12.0037 25.9162 11.9476C23.996 11.0735 19.8812 10.7741 18.381 10.798V10.8026ZM2.91703 11.9453C2.79182 12.0016 2.71287 12.1291 2.71745 12.2674C2.75932 13.712 3.11995 15.2914 3.38745 16.3493C3.44141 16.5612 3.63057 16.7095 3.84662 16.7101C6.66412 16.6962 9.01287 16.2443 11.0437 15.3283C11.5856 15.061 11.8566 14.5341 11.8479 13.7639C11.8087 13.093 11.7279 12.4255 11.6056 11.7653C11.5143 11.198 11.0245 10.786 10.4572 10.7991C9.58349 10.7849 5.09245 10.9641 2.91787 11.9462L2.91703 11.9453Z" fill="#252526"/>
<path d="M69.8061 12.4497C69.3482 12.192 68.8117 12.063 68.1961 12.063C67.519 12.063 66.9609 12.2093 66.5225 12.5015C66.0877 12.7901 65.7665 13.1843 65.5588 13.6845H65.455V9.22363H63.4121V21.0419H65.5009V15.8484C65.5009 15.4213 65.5819 15.0578 65.7434 14.7578C65.9088 14.4578 66.1357 14.2288 66.4244 14.0711C66.7167 13.9097 67.0475 13.8286 67.4169 13.8286C67.9671 13.8286 68.3942 13.9961 68.6977 14.3307C69.0059 14.6615 69.1596 15.1251 69.1596 15.7216V21.0419H71.2484V15.3982C71.2484 14.6826 71.1217 14.0768 70.8675 13.5805C70.6177 13.0845 70.2638 12.7072 69.8061 12.4497Z" fill="black"/>
<path d="M59.4557 13.6438H59.3403C59.2363 13.4283 59.0844 13.1994 58.8842 12.9571C58.6842 12.7106 58.4151 12.5013 58.0765 12.3279C57.7417 12.1508 57.3146 12.0625 56.7953 12.0625C56.1144 12.0625 55.4969 12.2377 54.943 12.5877C54.389 12.934 53.9486 13.4437 53.6215 14.1171C53.2984 14.7865 53.1367 15.6077 53.1367 16.581C53.1367 17.5467 53.2984 18.3506 53.6215 18.9931C53.9486 19.6317 54.3871 20.1125 54.9371 20.4358C55.4911 20.755 56.1086 20.9147 56.7896 20.9147C57.2973 20.9147 57.7186 20.8378 58.0534 20.684C58.3919 20.5302 58.6632 20.3398 58.8669 20.1127C59.0746 19.8858 59.2326 19.6648 59.3403 19.4492H59.444V21.1283C59.444 21.7824 59.2498 22.2518 58.8613 22.5364C58.4728 22.8249 57.9821 22.9691 57.3896 22.9691C56.9705 22.9691 56.6221 22.9114 56.3453 22.796C56.0721 22.6845 55.8546 22.5422 55.6932 22.3691C55.5315 22.1997 55.4084 22.0287 55.3238 21.8555L53.4426 22.3114C53.5696 22.7233 53.7965 23.098 54.1236 23.4366C54.4505 23.7751 54.8834 24.0445 55.4219 24.2445C55.9605 24.4485 56.6048 24.5503 57.3551 24.5503C58.1515 24.5503 58.8632 24.4272 59.4903 24.1812C60.1173 23.9347 60.6117 23.5635 60.9732 23.0672C61.3348 22.571 61.5157 21.9439 61.5157 21.1862V12.1779H59.4557V13.6438ZM59.2132 18.0237C59.0517 18.4275 58.8151 18.7373 58.5034 18.9527C58.1917 19.1681 57.8148 19.276 57.3723 19.276C56.9146 19.276 56.528 19.1644 56.2126 18.9415C55.9009 18.7144 55.6642 18.399 55.5028 17.995C55.3451 17.5873 55.2661 17.1121 55.2661 16.5696C55.2661 16.035 55.3451 15.5579 55.5028 15.1385C55.6605 14.7154 55.8951 14.3825 56.2067 14.1402C56.5184 13.8979 56.9069 13.7767 57.3723 13.7767C57.8226 13.7767 58.2015 13.894 58.5092 14.1285C58.8209 14.3594 59.0555 14.6846 59.2132 15.104C59.3748 15.5233 59.4557 16.0117 59.4557 16.5696C59.4557 17.135 59.3748 17.6196 59.2132 18.0237Z" fill="black"/>
<path d="M40.8527 13.1358C40.4796 12.7702 40.0486 12.501 39.56 12.3279C39.0754 12.1508 38.5598 12.0625 38.0136 12.0625C37.1671 12.0625 36.4304 12.2569 35.8034 12.6454C35.1763 13.0302 34.6877 13.5688 34.3377 14.2613C33.9915 14.9498 33.8184 15.75 33.8184 16.6617C33.8184 17.5888 33.9915 18.3948 34.3377 19.0794C34.684 19.7604 35.1784 20.2875 35.8206 20.6606C36.4671 21.0299 37.2346 21.2145 38.1231 21.2145C38.8119 21.2145 39.4236 21.1105 39.9581 20.9028C40.4929 20.6913 40.9315 20.395 41.274 20.0142C41.6202 19.6294 41.8548 19.1794 41.9779 18.664L40.0275 18.4446C39.9352 18.6946 39.7986 18.9044 39.6177 19.0737C39.4369 19.2431 39.2234 19.3719 38.9773 19.4602C38.7311 19.5448 38.4561 19.5871 38.1521 19.5871C37.6982 19.5871 37.3019 19.491 36.9634 19.2985C36.6248 19.1025 36.3613 18.8215 36.1727 18.456C35.9909 18.0998 35.899 17.6733 35.8925 17.1808H42.0646V16.5402C42.0646 15.7633 41.9567 15.094 41.7413 14.5321C41.5259 13.9667 41.2296 13.5013 40.8527 13.1358ZM35.8984 15.7729C35.9186 15.4263 36.0036 15.104 36.1613 14.8092C36.3421 14.4746 36.594 14.2054 36.9171 14.0012C37.2402 13.7935 37.6154 13.6898 38.0423 13.6898C38.4425 13.6898 38.7925 13.7802 39.0927 13.961C39.3965 14.1419 39.6332 14.39 39.8025 14.7054C39.9717 15.0169 40.0584 15.3727 40.0621 15.7729H35.8984Z" fill="black"/>
<path d="M49.5436 13.6438H49.4282C49.3242 13.4283 49.1723 13.1994 48.9721 12.9571C48.7721 12.7106 48.5029 12.5013 48.1644 12.3279C47.8296 12.1508 47.4025 12.0625 46.8832 12.0625C46.2023 12.0625 45.5848 12.2377 45.0309 12.5877C44.4769 12.934 44.0365 13.4437 43.7094 14.1171C43.3863 14.7865 43.2246 15.6077 43.2246 16.581C43.2246 17.5467 43.3863 18.3506 43.7094 18.9931C44.0365 19.6317 44.475 20.1125 45.025 20.4358C45.579 20.755 46.1965 20.9147 46.8775 20.9147C47.3852 20.9147 47.8065 20.8378 48.1413 20.684C48.4798 20.5302 48.7511 20.3398 48.9548 20.1127C49.1625 19.8858 49.3204 19.6648 49.4282 19.4492H49.5319V21.1283C49.5319 21.7824 49.3377 22.2518 48.9492 22.5364C48.5607 22.8249 48.07 22.9691 47.4775 22.9691C47.0584 22.9691 46.71 22.9114 46.4332 22.796C46.16 22.6845 45.9425 22.5422 45.7811 22.3691C45.6194 22.1997 45.4963 22.0287 45.4117 21.8555L43.5304 22.3114C43.6575 22.7233 43.8844 23.098 44.2115 23.4366C44.5384 23.7751 44.9713 24.0445 45.5098 24.2445C46.0484 24.4485 46.6927 24.5503 47.4429 24.5503C48.2394 24.5503 48.9511 24.4272 49.5782 24.1812C50.2052 23.9347 50.6996 23.5635 51.0611 23.0672C51.4227 22.571 51.6036 21.9439 51.6036 21.1862V12.1779H49.5436V13.6438ZM49.3011 18.0237C49.1396 18.4275 48.9029 18.7373 48.5913 18.9527C48.2796 19.1681 47.9027 19.276 47.4602 19.276C47.0025 19.276 46.6159 19.1644 46.3004 18.9415C45.9888 18.7144 45.7521 18.399 45.5907 17.995C45.4329 17.5873 45.354 17.1121 45.354 16.5696C45.354 16.035 45.4329 15.5579 45.5907 15.1385C45.7484 14.7154 45.9829 14.3825 46.2946 14.1402C46.6063 13.8979 46.9948 13.7767 47.4602 13.7767C47.9104 13.7767 48.2894 13.894 48.5971 14.1285C48.9088 14.3594 49.1434 14.6846 49.3011 15.104C49.4627 15.5233 49.5436 16.0117 49.5436 16.5696C49.5436 17.135 49.4627 17.6196 49.3011 18.0237Z" fill="black"/>
<path d="M108.161 12.1777H106.072V21.0415H108.161V12.1777Z" fill="black"/>
<path d="M107.122 8.65234C106.791 8.65234 106.507 8.76401 106.268 8.98693C106.029 9.2063 105.91 9.47359 105.91 9.78922C105.91 10.1009 106.029 10.3682 106.268 10.5913C106.507 10.8107 106.791 10.9203 107.122 10.9203C107.457 10.9203 107.742 10.8107 107.976 10.5913C108.215 10.3684 108.334 10.1009 108.334 9.78922C108.334 9.47359 108.215 9.2063 107.976 8.98693C107.742 8.76401 107.457 8.65234 107.122 8.65234Z" fill="black"/>
<path d="M79.7881 13.1358C79.4149 12.7702 78.9841 12.501 78.4956 12.3279C78.0108 12.1508 77.4952 12.0625 76.9489 12.0625C76.1024 12.0625 75.3658 12.2569 74.7389 12.6454C74.1118 13.0302 73.6233 13.5688 73.2733 14.2613C72.927 14.9498 72.7539 15.75 72.7539 16.6617C72.7539 17.5888 72.927 18.3948 73.2733 19.0794C73.6193 19.7604 74.1137 20.2875 74.7562 20.6606C75.4027 21.0299 76.1699 21.2145 77.0587 21.2145C77.7474 21.2145 78.3589 21.1105 78.8939 20.9028C79.4285 20.6913 79.8672 20.395 80.2095 20.0142C80.5556 19.6294 80.7902 19.1794 80.9135 18.664L78.9631 18.4446C78.8708 18.6946 78.7341 18.9044 78.5533 19.0737C78.3727 19.2431 78.1589 19.3719 77.9129 19.4602C77.6666 19.5448 77.3916 19.5871 77.0877 19.5871C76.6337 19.5871 76.2374 19.491 75.8989 19.2985C75.5604 19.1025 75.2968 18.8215 75.1083 18.456C74.9262 18.0998 74.8343 17.6733 74.8279 17.1808H81.0002V16.5402C81.0002 15.7633 80.8922 15.094 80.6768 14.5321C80.4614 13.9667 80.1652 13.5013 79.7881 13.1358ZM74.8337 15.7729C74.8541 15.4263 74.9389 15.104 75.0968 14.8092C75.2774 14.4746 75.5293 14.2054 75.8527 14.0012C76.176 13.7935 76.551 13.6898 76.9779 13.6898C77.3779 13.6898 77.7283 13.7802 78.0281 13.961C78.332 14.1419 78.5687 14.39 78.7379 14.7054C78.9072 15.0169 78.9939 15.3727 78.9974 15.7729H74.8337Z" fill="black"/>
<path d="M117.653 14.2379C117.307 13.5492 116.816 13.0146 116.182 12.6338C115.547 12.2529 114.797 12.0625 113.931 12.0625C113.065 12.0625 112.315 12.2529 111.68 12.6338C111.045 13.0146 110.553 13.5494 110.203 14.2379C109.857 14.9267 109.684 15.7288 109.684 16.6444C109.684 17.56 109.857 18.36 110.203 19.0448C110.553 19.7296 111.045 20.2625 111.68 20.6433C112.315 21.0241 113.065 21.2145 113.931 21.2145C114.797 21.2145 115.547 21.0241 116.182 20.6433C116.816 20.2625 117.307 19.7296 117.653 19.0448C118.003 18.36 118.178 17.5598 118.178 16.6444C118.178 15.729 118.003 14.9265 117.653 14.2379ZM115.824 18.1042C115.67 18.5427 115.435 18.8927 115.12 19.1544C114.804 19.4121 114.412 19.5408 113.943 19.5408C113.462 19.5408 113.062 19.4121 112.742 19.1544C112.427 18.8927 112.19 18.5427 112.033 18.1042C111.879 17.6656 111.802 17.1771 111.802 16.6385C111.802 16.096 111.879 15.6054 112.033 15.1671C112.19 14.7246 112.427 14.3727 112.742 14.111C113.062 13.8494 113.462 13.7185 113.943 13.7185C114.412 13.7185 114.804 13.8494 115.12 14.111C115.435 14.3727 115.67 14.7246 115.824 15.1671C115.982 15.6054 116.061 16.096 116.061 16.6385C116.06 17.1771 115.982 17.6656 115.824 18.1042Z" fill="black"/>
<path d="M88.5878 12.709C88.2378 12.4781 87.8512 12.3127 87.428 12.2127C87.0047 12.1127 86.5799 12.0625 86.1526 12.0625C85.5333 12.0625 84.9678 12.1548 84.4562 12.3396C83.9445 12.5202 83.5116 12.7935 83.1576 13.159C82.8041 13.5206 82.5499 13.9706 82.3962 14.5092L84.3464 14.7862C84.4503 14.4823 84.6503 14.2187 84.9466 13.9956C85.2466 13.7725 85.6528 13.661 86.1645 13.661C86.6489 13.661 87.0201 13.7802 87.278 14.0187C87.536 14.2575 87.6645 14.594 87.6645 15.0287V15.0633C87.6645 15.2635 87.5897 15.4115 87.4397 15.5077C87.2935 15.6 87.0589 15.6694 86.7355 15.7154C86.4124 15.7577 85.9914 15.806 85.472 15.8596C85.0412 15.9058 84.6237 15.9808 84.2197 16.0848C83.8197 16.1846 83.4599 16.3327 83.1403 16.5292C82.8214 16.7252 82.5691 16.9869 82.3845 17.314C82.1997 17.6408 82.1074 18.0546 82.1074 18.5546C82.1074 19.1354 82.2364 19.6242 82.4941 20.0204C82.7558 20.4165 83.1097 20.7167 83.556 20.9203C84.006 21.1205 84.5118 21.2205 85.0735 21.2205C85.5351 21.2205 85.9372 21.1568 86.2797 21.0301C86.6258 20.8993 86.9124 20.7281 87.1395 20.5165C87.3703 20.301 87.5491 20.0702 87.6762 19.824H87.7453V21.0416H89.7535V15.1094C89.7535 14.5208 89.6458 14.0302 89.4303 13.6379C89.2187 13.2456 88.9378 12.936 88.5878 12.709ZM87.6703 17.8621C87.6703 18.189 87.5858 18.491 87.4164 18.7681C87.251 19.045 87.0145 19.2681 86.7066 19.4375C86.3989 19.6029 86.0353 19.6856 85.616 19.6856C85.1814 19.6856 84.8235 19.5873 84.5428 19.3913C84.2618 19.1952 84.1216 18.9046 84.1216 18.5198C84.1216 18.2504 84.1928 18.0312 84.3351 17.8621C84.4774 17.689 84.6718 17.5542 84.918 17.4581C85.1641 17.3621 85.4433 17.2927 85.7547 17.2504C85.8933 17.2312 86.0568 17.2081 86.2451 17.1812C86.4337 17.1542 86.6241 17.1235 86.8166 17.089C87.0089 17.0544 87.182 17.014 87.3358 16.9677C87.4937 16.9215 87.6051 16.8717 87.6703 16.8177V17.8621Z" fill="black"/>
<path d="M97.5262 13.644H97.4397C97.3318 13.4286 97.1801 13.1997 96.9839 12.9574C96.7878 12.7109 96.5222 12.5015 96.1876 12.3282C95.8531 12.1511 95.426 12.0628 94.9068 12.0628C94.2255 12.0628 93.6083 12.238 93.0541 12.588C92.5001 12.9343 92.0599 13.4478 91.7326 14.1288C91.4095 14.8059 91.248 15.637 91.248 16.6218C91.248 17.5951 91.4078 18.4224 91.727 19.1032C92.0462 19.784 92.481 20.3034 93.0314 20.6613C93.5814 21.0189 94.2047 21.1979 94.901 21.1979C95.4089 21.1979 95.8301 21.1133 96.1647 20.9439C96.4993 20.7747 96.7685 20.5709 96.9726 20.3322C97.1766 20.0899 97.3322 19.8609 97.4399 19.6455H97.5668V21.0419H99.6212V9.22363H97.5262V13.644ZM97.3243 18.1163C97.1628 18.5472 96.926 18.8838 96.6145 19.1261C96.3028 19.3649 95.9258 19.484 95.4835 19.484C95.0256 19.484 94.6389 19.3609 94.3235 19.1149C94.012 18.8647 93.7753 18.5243 93.6139 18.0934C93.4562 17.6586 93.3772 17.1645 93.3772 16.6105C93.3772 16.0603 93.4562 15.5718 93.6139 15.1447C93.7716 14.7176 94.0064 14.383 94.3178 14.1407C94.6295 13.8984 95.0178 13.7772 95.4837 13.7772C95.9337 13.7772 96.3126 13.8945 96.6203 14.129C96.932 14.3638 97.1666 14.6928 97.3245 15.1159C97.486 15.539 97.5668 16.0372 97.5668 16.6105C97.5666 17.1834 97.4858 17.6855 97.3243 18.1163Z" fill="black"/>
<path d="M102.888 18.6406C102.538 18.6406 102.238 18.7637 101.988 19.0098C101.738 19.2558 101.615 19.5523 101.619 19.8985C101.615 20.2525 101.738 20.5527 101.988 20.7988C102.238 21.0449 102.539 21.168 102.888 21.168C103.115 21.168 103.323 21.1122 103.512 21.0005C103.704 20.8851 103.858 20.7312 103.973 20.5387C104.093 20.3465 104.154 20.1329 104.158 19.8983C104.154 19.5521 104.025 19.2558 103.772 19.0096C103.521 18.7635 103.227 18.6406 102.888 18.6406Z" fill="black"/>
</svg>
