<svg width="90" height="30" viewBox="0 0 90 30" fill="none" xmlns="http://www.w3.org/2000/svg">
<path d="M38.3768 15.7738C38.3768 20.015 35.059 23.1405 30.987 23.1405C26.9155 23.1405 23.5977 20.015 23.5977 15.7738C23.5977 11.5026 26.9155 8.40723 30.987 8.40723C35.059 8.40723 38.3768 11.5026 38.3768 15.7738ZM35.1417 15.7738C35.1417 13.1235 33.2191 11.31 30.987 11.31C28.7554 11.31 26.8321 13.1235 26.8321 15.7738C26.8321 18.3977 28.7549 20.2375 30.987 20.2375C33.2191 20.2375 35.1417 18.3941 35.1417 15.7738Z" fill="white"/>
<path d="M54.3182 15.7738C54.3182 20.015 51.0003 23.1405 46.9288 23.1405C42.8569 23.1405 39.5391 20.015 39.5391 15.7738C39.5391 11.5062 42.8569 8.40723 46.9288 8.40723C51.0003 8.40723 54.3182 11.5026 54.3182 15.7738ZM51.0832 15.7738C51.0832 13.1235 49.1605 11.31 46.9284 11.31C44.6963 11.31 42.7735 13.1235 42.7735 15.7738C42.7735 18.3977 44.6963 20.2375 46.9284 20.2375C49.1605 20.2375 51.0832 18.3941 51.0832 15.7738Z" fill="white"/>
<path d="M69.5961 8.85227V22.0774C69.5961 27.5177 66.3874 29.7394 62.5949 29.7394C59.0245 29.7394 56.8761 27.3516 56.0652 25.3985L58.8821 24.2257C59.3836 25.4248 60.6122 26.8397 62.5918 26.8397C65.0195 26.8397 66.524 25.3419 66.524 22.5219V21.4622H66.4112C65.6871 22.3559 64.2919 23.1358 62.5322 23.1358C58.8489 23.1358 55.4746 19.9277 55.4746 15.7994C55.4746 11.6415 58.8489 8.40625 62.5322 8.40625C64.2888 8.40625 65.684 9.18679 66.4112 10.0537H66.524V8.85446H69.5961V8.85227ZM66.7533 15.8002C66.7533 13.2068 65.0231 11.3099 62.821 11.3099C60.5894 11.3099 58.7195 13.2063 58.7195 15.8002C58.7195 18.3677 60.5894 20.2374 62.821 20.2374C65.0231 20.2374 66.7533 18.3677 66.7533 15.8002Z" fill="white"/>
<path d="M74.6612 1.10059V22.6884H71.5059V1.10059H74.6612Z" fill="white"/>
<path d="M86.9566 18.1976L89.4676 19.8713C88.6571 21.0704 86.7045 23.1359 83.3297 23.1359C79.1449 23.1359 76.0195 19.9014 76.0195 15.7699C76.0195 11.3895 79.1718 8.40332 82.9674 8.40332C86.79 8.40332 88.6603 11.4453 89.2715 13.0891L89.6068 13.9264L79.7592 18.005C80.5133 19.4826 81.686 20.2366 83.3297 20.2366C84.9774 20.2366 86.1201 19.4259 86.9566 18.1976ZM79.2282 15.5469L85.8107 12.8134C85.4489 11.8937 84.3595 11.2527 83.0776 11.2527C81.4339 11.2527 79.1454 12.7041 79.2282 15.5469Z" fill="white"/>
<path d="M11.6547 13.8564V10.7314H22.1865C22.2895 11.2759 22.3428 11.9204 22.3428 12.6176C22.3428 14.9625 21.7017 17.8616 19.6361 19.9276C17.627 22.02 15.0596 23.1358 11.6589 23.1358C5.35529 23.1358 0.0546875 18.0014 0.0546875 11.6978C0.0546875 5.39422 5.35529 0.259766 11.6589 0.259766C15.146 0.259766 17.6302 1.62815 19.4969 3.41159L17.2918 5.61671C15.9534 4.36165 14.1398 3.38513 11.6556 3.38513C7.05262 3.38513 3.45225 7.09482 3.45225 11.6982C3.45225 16.3012 7.05262 20.0113 11.6556 20.0113C14.6413 20.0113 16.342 18.8123 17.4315 17.7229C18.3149 16.8394 18.8959 15.5772 19.1252 13.8537L11.6547 13.8564Z" fill="white"/>
</svg>
