<svg width="104" height="30" viewBox="0 0 104 30" fill="none" xmlns="http://www.w3.org/2000/svg">
<mask id="mask0_3699_67" style="mask-type:luminance" maskUnits="userSpaceOnUse" x="0" y="0" width="104" height="30">
<path d="M103.904 0H0.453125V29.5542H103.904V0Z" fill="white"/>
</mask>
<path d="M36.2416 16.4347C35.3608 15.9479 34.8972 15.5539 34.8972 14.9976C34.8972 14.279 35.5231 13.8386 36.5198 13.8386C37.6788 13.8386 38.6987 14.3254 38.6987 14.3254L39.51 11.8451C39.51 11.8451 38.7682 11.2656 36.5661 11.2656C33.5064 11.2656 31.3739 13.0273 31.3739 15.4843C31.3739 16.8751 32.3706 17.9414 33.6919 18.7063C34.7581 19.309 35.129 19.7494 35.129 20.3753C35.129 21.0475 34.5959 21.5806 33.5991 21.5806C32.1156 21.5806 30.7248 20.8157 30.7248 20.8157L29.8672 23.2959C29.8672 23.2959 31.1653 24.1536 33.321 24.1536C36.4734 24.1536 38.7219 22.6005 38.7219 19.819C38.7682 18.2891 37.6092 17.2228 36.2416 16.4347Z" fill="black"/>
<path d="M48.8024 11.2194C47.2493 11.2194 46.044 11.9611 45.0936 13.0737L45.0473 13.0506L46.3917 6.00391H42.8684L39.4609 23.9219H42.9611L44.1201 17.8024C44.5837 15.4844 45.7658 14.0705 46.8785 14.0705C47.6666 14.0705 47.9679 14.6036 47.9679 15.3685C47.9679 15.8553 47.9216 16.4348 47.8057 16.9216L46.4844 23.9451H49.9846L51.3522 16.713C51.5144 15.948 51.6071 15.044 51.6071 14.4182C51.6535 12.4015 50.6336 11.2194 48.8024 11.2194Z" fill="black"/>
<path d="M59.586 11.2188C55.3673 11.2188 52.5625 15.0202 52.5625 19.2621C52.5625 21.9742 54.2314 24.1762 57.3839 24.1762C61.5331 24.1762 64.3146 20.4675 64.3146 16.1329C64.3378 13.6063 62.8775 11.2188 59.586 11.2188ZM57.8707 21.4641C56.6653 21.4641 56.1785 20.4442 56.1785 19.1693C56.1785 17.1527 57.2216 13.8844 59.1224 13.8844C60.3741 13.8844 60.7681 14.9507 60.7681 15.9938C60.7681 18.1727 59.7251 21.4641 57.8707 21.4641Z" fill="black"/>
<path d="M73.305 11.2188C70.9407 11.2188 69.5963 13.3049 69.5963 13.3049H69.5499L69.7585 11.4274H66.6525C66.4902 12.7023 66.212 14.6262 65.9339 16.0865L63.5 28.8817H67.0001L67.9737 23.6895H68.0432C68.0432 23.6895 68.7618 24.153 70.1062 24.153C74.2322 24.153 76.9211 19.9343 76.9211 15.6693C76.9211 13.3281 75.878 11.2188 73.305 11.2188ZM69.9672 21.5337C69.0631 21.5337 68.53 21.0238 68.53 21.0238L69.1095 17.7554C69.5267 15.5765 70.6626 14.1162 71.8679 14.1162C72.9342 14.1162 73.2587 15.113 73.2587 16.0401C73.2587 18.2886 71.9143 21.5337 69.9672 21.5337Z" fill="black"/>
<path d="M81.9309 6.18945C80.8182 6.18945 79.9141 7.07038 79.9141 8.2295C79.9141 9.27271 80.5632 9.99136 81.56 9.99136H81.6064C82.696 9.99136 83.6464 9.24953 83.6696 7.95131C83.6928 6.90811 82.9973 6.18945 81.9309 6.18945Z" fill="black"/>
<path d="M77.0156 23.9204H80.539L82.9265 11.4961H79.38L77.0156 23.9204Z" fill="black"/>
<path d="M91.8301 11.4737H89.3962L89.5121 10.8942C89.7208 9.68887 90.4162 8.6226 91.5983 8.6226C92.2242 8.6226 92.7109 8.80804 92.7109 8.80804L93.4063 6.07282C93.4063 6.07282 92.8037 5.77148 91.5056 5.77148C90.2539 5.77148 89.0254 6.11918 88.075 6.93047C86.8696 7.95038 86.3133 9.41071 86.0352 10.8942L85.9425 11.4737H84.3199L83.8099 14.1162H85.4325L83.5781 23.9212H87.0783L88.9327 14.1162H91.3433L91.8301 11.4737Z" fill="black"/>
<path d="M100.26 11.4961C100.26 11.4961 98.0584 17.0129 97.0849 20.0262H97.0385C96.969 19.0527 96.1808 11.4961 96.1808 11.4961H92.4953L94.6046 22.9005C94.651 23.1555 94.6278 23.3178 94.5351 23.48C94.1178 24.2681 93.4456 25.0331 92.6343 25.5894C91.9853 26.0762 91.2436 26.3775 90.6641 26.5861L91.6376 29.5531C92.3562 29.3909 93.8165 28.8114 95.0682 27.6524C96.6676 26.1457 98.1511 23.8509 99.6578 20.6985L103.946 11.4961H100.26Z" fill="black"/>
<path d="M17.7924 3.431C17.7924 3.431 17.4678 3.52372 16.9347 3.68598C16.842 3.38464 16.7029 3.03695 16.5175 2.66607C15.9148 1.50708 15.0108 0.88123 13.9445 0.88123C13.875 0.88123 13.8054 0.88123 13.7127 0.904409C13.6895 0.85805 13.6432 0.83487 13.62 0.788511C13.1564 0.278556 12.5537 0.0467579 11.8352 0.0699376C10.4444 0.116297 9.05359 1.11303 7.94096 2.89787C7.15285 4.14958 6.55018 5.7258 6.38792 6.95433C4.78851 7.4411 3.67589 7.7888 3.65271 7.81198C2.84141 8.06696 2.81823 8.09014 2.72552 8.85507C2.65598 9.43457 0.523438 25.7531 0.523438 25.7531L18.0473 28.7897V3.40782C17.9083 3.40782 17.8387 3.431 17.7924 3.431ZM13.7359 4.68271C12.8087 4.96087 11.7888 5.28539 10.7921 5.58672C11.0702 4.49727 11.6265 3.40782 12.2756 2.68925C12.5306 2.43427 12.8783 2.13294 13.2723 1.9475C13.6664 2.78197 13.7591 3.91778 13.7359 4.68271ZM11.8352 1.02031C12.1597 1.02031 12.4378 1.08985 12.6696 1.22893C12.2988 1.41436 11.9279 1.7157 11.5802 2.0634C10.6994 3.01377 10.0271 4.49727 9.74898 5.91124C8.91451 6.16622 8.08004 6.42119 7.31511 6.65299C7.82506 4.42773 9.70262 1.06667 11.8352 1.02031ZM9.14631 13.7692C9.23903 15.2527 13.1564 15.5772 13.3882 19.0774C13.5505 21.8357 11.9279 23.7133 9.58673 23.8524C6.7588 24.0378 5.20575 22.3689 5.20575 22.3689L5.80842 19.8191C5.80842 19.8191 7.36147 21.0013 8.61318 20.9086C9.42447 20.8622 9.72581 20.19 9.70263 19.7264C9.58673 17.7793 6.38792 17.8952 6.1793 14.6964C5.99386 12.0075 7.75552 9.29549 11.6497 9.04051C13.1564 8.94779 13.9213 9.31867 13.9213 9.31867L13.0405 12.6566C13.0405 12.6566 12.0438 12.193 10.8616 12.2857C9.14631 12.4016 9.12313 13.491 9.14631 13.7692ZM14.6631 4.40455C14.6631 3.70916 14.5704 2.71243 14.2459 1.87796C15.3121 2.08658 15.8221 3.26875 16.0539 3.98732C15.6366 4.10322 15.173 4.2423 14.6631 4.40455Z" fill="black"/>
<path d="M18.5781 28.7429L25.8566 26.9349C25.8566 26.9349 22.7273 5.77173 22.7041 5.63265C22.6809 5.49357 22.565 5.40085 22.4491 5.40085C22.3332 5.40085 20.2934 5.35449 20.2934 5.35449C20.2934 5.35449 19.0417 4.14914 18.5781 3.68555V28.7429Z" fill="black"/>
</svg>
