<svg width="123" height="26" viewBox="0 0 123 26" fill="none" xmlns="http://www.w3.org/2000/svg">
<path d="M34.0492 20.2852C37.2252 20.2852 39.4822 18.6142 39.4822 15.7932C39.4822 12.7012 36.9952 11.9282 34.7812 11.2592C32.5032 10.5692 32.1482 10.1092 32.1482 9.44123C32.1482 8.85623 32.6702 8.33423 33.7152 8.33423C35.0522 8.33423 35.7422 8.98223 36.2432 10.0262L39.0642 8.37624C37.9992 6.22424 36.1192 5.07423 33.7152 5.07423C31.1872 5.07423 28.8052 6.70423 28.8052 9.52423C28.8052 12.3242 30.9362 13.3692 33.1092 13.9752C35.3032 14.5812 36.1392 14.9362 36.1392 15.8352C36.1392 16.3992 35.7422 17.0252 34.1542 17.0252C32.5042 17.0252 31.6042 16.2112 31.0822 14.9992L28.1992 16.6712C29.0142 18.8232 30.9782 20.2852 34.0492 20.2852ZM46.8642 12.5552V9.54523H44.7122V6.62023L41.5782 7.56024V9.54623H39.9062V12.5552H41.5782V16.2532C41.5782 19.1782 42.7682 20.4112 46.8642 19.9932V17.1502C45.4852 17.2342 44.7122 17.1502 44.7122 16.2522V12.5542H46.8642V12.5552ZM56.0192 9.54523V10.5282C55.3292 9.73423 54.3062 9.25323 52.9062 9.25323C50.1692 9.25323 47.9122 11.6562 47.9122 14.7692C47.9122 17.8832 50.1692 20.2852 52.9062 20.2852C54.3062 20.2852 55.3302 19.8052 56.0192 19.0112V19.9932H59.1532V9.54623L56.0192 9.54523ZM53.5332 17.3182C52.0912 17.3182 51.0462 16.3362 51.0462 14.7692C51.0462 13.2022 52.0912 12.2202 53.5332 12.2202C54.9752 12.2202 56.0192 13.2022 56.0192 14.7702C56.0192 16.3362 54.9752 17.3182 53.5332 17.3182ZM66.4672 20.2852C68.5152 20.2852 70.2912 19.2202 71.1902 17.5902L68.4522 16.0232C68.1182 16.7542 67.3452 17.1932 66.4262 17.1932C65.0682 17.1932 64.0652 16.2112 64.0652 14.7692C64.0652 13.3282 65.0672 12.3452 66.4252 12.3452C67.3452 12.3452 68.0972 12.7852 68.4522 13.5152L71.1902 11.9282C70.2912 10.3182 68.4942 9.25323 66.4672 9.25323C63.2912 9.25323 60.9302 11.6562 60.9302 14.7692C60.9302 17.8832 63.2912 20.2852 66.4672 20.2852ZM82.4802 19.9932L78.5732 14.7692L82.3762 9.54623H78.7192L75.5852 14.1222V5.36723H72.4512V19.9932H75.5852V15.3752L78.9282 19.9932H82.4802ZM92.8052 12.4082C93.5992 11.7182 94.0802 10.7582 94.0802 9.54623C94.0802 7.01723 92.0112 5.36623 89.4622 5.36623H83.7372V19.9932H89.8802C92.4922 19.9932 94.6022 18.3012 94.6022 15.7092C94.6022 14.2262 93.8922 13.0982 92.8052 12.4092V12.4082ZM89.4622 8.50124C90.2352 8.50124 90.7372 9.04423 90.7372 9.79623C90.7372 10.5492 90.2142 11.0922 89.4622 11.0922H87.0802V8.50023H89.4622V8.50124ZM89.8802 16.8592H87.0802V14.0592H89.8802C90.7162 14.0592 91.2592 14.6442 91.2592 15.4592C91.2592 16.2742 90.7162 16.8592 89.8802 16.8592ZM96.1612 19.9932H99.2952V4.74023H96.1612V19.9932ZM103.156 8.62624C103.653 8.62103 104.128 8.42129 104.48 8.06984C104.831 7.71839 105.031 7.24323 105.036 6.74623C105.031 6.24924 104.831 5.77407 104.48 5.42263C104.128 5.07118 103.653 4.87144 103.156 4.86623C102.659 4.87144 102.184 5.07118 101.833 5.42263C101.481 5.77407 101.281 6.24924 101.276 6.74623C101.281 7.24323 101.481 7.71839 101.833 8.06984C102.184 8.42129 102.659 8.62103 103.156 8.62624ZM101.589 19.9932H104.723V9.54623H101.589V19.9932ZM113.139 12.5552V9.54523H110.986V6.62023L107.852 7.56024V9.54623H106.181V12.5552H107.852V16.2532C107.852 19.1782 109.043 20.4112 113.138 19.9932V17.1502C111.759 17.2342 110.986 17.1502 110.986 16.2522V12.5542H113.138L113.139 12.5552ZM118.799 17.0682L122.749 11.6352V9.54523H114.809V12.4712H118.549L114.599 17.9032V19.9932H122.957V17.0682H118.799Z" fill="black"/>
<path d="M7.74711 15.273H0.287109L13.9251 0.5L10.2541 10.727H17.7141L4.07511 25.5L7.74711 15.273Z" fill="black"/>
</svg>
